<svg xmlns="http://www.w3.org/2000/svg" width="11.849" height="11.361" viewBox="0 0 11.849 11.361">
  <path id="favoriteManage" d="M137.134,176.908a.885.885,0,0,0-.457-.124.863.863,0,0,0-.445.124.959.959,0,0,0-.309.346l-1.285,2.608a.3.3,0,0,1-.111.136.548.548,0,0,1-.173.074l-2.865.408a.836.836,0,0,0-.432.2.779.779,0,0,0-.259.383.83.83,0,0,0-.012.47.886.886,0,0,0,.235.408l2.075,2.015a.437.437,0,0,1,.086.161.252.252,0,0,1,.012.173l-.482,2.855a.905.905,0,0,0,.049.47.835.835,0,0,0,.284.371.935.935,0,0,0,.445.161.9.9,0,0,0,.457-.1L136.5,186.7a.346.346,0,0,1,.173-.049.3.3,0,0,1,.173.049l2.569,1.347a.827.827,0,0,0,.4.1.879.879,0,0,0,.506-.161.835.835,0,0,0,.284-.371.9.9,0,0,0,.049-.47l-.494-2.855a.412.412,0,0,1,.012-.173.651.651,0,0,1,.1-.161l2.075-2.015a.887.887,0,0,0,.235-.408.766.766,0,0,0-.025-.47.779.779,0,0,0-.259-.383.828.828,0,0,0-.42-.2l-2.865-.408a.548.548,0,0,1-.173-.074.3.3,0,0,1-.111-.136l-1.285-2.608a.958.958,0,0,0-.309-.346" transform="translate(-130.757 -176.784)" fill="#2e3845"/>
</svg>
