<svg xmlns="http://www.w3.org/2000/svg" width="16" height="16" viewBox="0 0 16 16">
  <g id="그룹_7105" data-name="그룹 7105" transform="translate(-108 -586)">
    <g id="타원_596" data-name="타원 596" transform="translate(110 588)" fill="#fff" stroke="#1c202b" stroke-width="2">
      <circle cx="6" cy="6" r="6" stroke="none"/>
      <circle cx="6" cy="6" r="7" fill="none"/>
    </g>
    <g id="그룹_7179" data-name="그룹 7179" transform="translate(112.8 590.6)">
      <g id="그룹_7181" data-name="그룹 7181" transform="translate(0)">
        <path id="패스_6730" data-name="패스 6730" d="M6.147,1.891A3.384,3.384,0,0,0,1.524.672a3.275,3.275,0,0,0-.717.592L.788.385A.407.407,0,0,0,.385,0,.392.392,0,0,0,0,.4L.049,2.512A.392.392,0,0,0,.441,2.9H.45L2.561,2.85a.394.394,0,0,0-.018-.788l-1.331.03c.022-.037.046-.072.088-.135A2.5,2.5,0,0,1,1.951,1.4,2.522,2.522,0,0,1,4.509,5.748l-.021.013a2.518,2.518,0,0,1-3.45-.907A.427.427,0,0,0,.454,4.7h0A.429.429,0,0,0,.3,5.286,3.355,3.355,0,0,0,2.356,6.853a3.4,3.4,0,0,0,.868.113,3.354,3.354,0,0,0,1.592-.4l.155-.088A3.384,3.384,0,0,0,6.147,1.891" transform="translate(0)" fill="#1c202b" stroke="#1c202b" stroke-width="0.3"/>
      </g>
    </g>
  </g>
</svg>
