<svg xmlns="http://www.w3.org/2000/svg" width="14.395" height="18" viewBox="0 0 14.395 18">
  <g id="그룹_6851" data-name="그룹 6851" transform="translate(-3447.123 -3763.103)">
    <path id="패스_6198" data-name="패스 6198" d="M584.51-696.107c.01.046.05.048.085.059l2.313.721a.182.182,0,0,0,.116,0l2.3-.72c.034-.011.076-.011.084-.059q2.218,0,4.437,0c.092,0,.119.021.119.116q0,2.181,0,4.363c0,.091-.02.119-.116.119q-6.895,0-13.789,0c-.088,0-.121-.015-.121-.114q.005-2.186,0-4.372c0-.09.027-.112.114-.111Q582.282-696.105,584.51-696.107Zm-.667,3.965a.115.115,0,0,0,.026.009c.291.027.581.052.872.081.055.005.051-.025.051-.061,0-.172,0-.344,0-.516,0-.051.011-.069.068-.057.192.04.386.074.58.108.052.009.071.029.069.084,0,.154,0,.307,0,.461,0,.055.017.073.072.079.239.023.477.047.715.079.078.011.09-.011.089-.082q0-.89,0-1.78a1.175,1.175,0,0,0-.119-.516,1.387,1.387,0,0,0-.776-.67,3.527,3.527,0,0,0-1.051-.218,3.576,3.576,0,0,0-.6-.026c-.036.023-.024.06-.024.092q0,1.421,0,2.843C583.817-692.2,583.8-692.164,583.843-692.142Zm-2.914-.346c.261.041.525.051.787.077.053.005.041-.034.041-.061,0-.178,0-.356,0-.535,0-.094,0-.187,0-.3a.8.8,0,0,1,.23.191,4.617,4.617,0,0,1,.525.755.185.185,0,0,0,.172.108c.1,0,.208.019.312.029l.585.054-.042-.066c-.19-.29-.378-.581-.57-.871-.034-.052-.048-.077.022-.115a.717.717,0,0,0,.35-.444,1.128,1.128,0,0,0-.027-.7,1.362,1.362,0,0,0-.627-.711,3.867,3.867,0,0,0-1.753-.536c-.046.015-.031.055-.031.086q0,1.47,0,2.94C580.9-692.548,580.891-692.511,580.928-692.489Zm9.974-1.266c0,.483,0,.965,0,1.448,0,.062.015.08.078.069.121-.021.244-.03.365-.052a7.53,7.53,0,0,0,.853-.146,1.585,1.585,0,0,0,1.2-1.572,1.454,1.454,0,0,0-.273-.863,1.389,1.389,0,0,0-1.254-.5c-.294.02-.586.069-.879.1-.067.007-.091.026-.091.1C590.9-694.7,590.9-694.229,590.9-693.755Zm-3.993.422h.005c0,.464,0,.929,0,1.393,0,.092.029.1.108.095.211-.023.422-.042.634-.055.074,0,.09-.032.089-.1,0-.243,0-.486,0-.729,0-.068.02-.087.086-.1a2.646,2.646,0,0,0,.66-.164,1.013,1.013,0,0,0,.653-.687.928.928,0,0,0-.7-1.217,3.076,3.076,0,0,0-1.486.066c-.043.01-.046.035-.046.073C586.91-694.28,586.909-693.807,586.909-693.333Zm2.554-.256q0,.724,0,1.448c0,.045-.007.083.064.073.252-.037.505-.07.758-.1.05-.006.064-.024.064-.074q0-1.443,0-2.886c0-.057-.019-.065-.069-.06-.241.025-.483.049-.725.067-.073.006-.1.027-.095.1C589.465-694.542,589.463-694.065,589.463-693.589Z" transform="translate(2867.364 4468.324)" fill="#075b88"/>
    <path id="패스_6199" data-name="패스 6199" d="M579.775-706.236c-.01-.156-.01-.156.146-.156q2.246,0,4.492,0c.084,0,.1.021.1.1q0,2.379,0,4.759c0,.078-.013.1-.1.1q-7.1,0-14.194,0c-.081,0-.1-.018-.1-.1q0-2.384,0-4.768c0-.087.028-.1.1-.1q2.255,0,4.51,0c.149,0,.149,0,.138.156q-2.246,0-4.491,0c-.085,0-.105.022-.105.106q0,2.218,0,4.436c0,.095.024.114.115.114q6.931,0,13.861,0c.086,0,.112-.015.112-.108q-.005-2.218,0-4.436c0-.087-.017-.112-.108-.112Q582.016-706.233,579.775-706.236Z" transform="translate(2877 4478.419)" fill="#f2eb03"/>
    <path id="패스_6200" data-name="패스 6200" d="M838.647-965.665c0,.8,0,1.6,0,2.4a.094.094,0,0,1-.079.109q-1.092.334-2.182.674a.211.211,0,0,1-.133,0q-1.095-.34-2.191-.675a.093.093,0,0,1-.079-.108q0-2.394,0-4.788c0-.068.016-.087.086-.086q2.246,0,4.492,0c.081,0,.086.031.086.1Q838.646-966.855,838.647-965.665Zm-.144.018c0-.753,0-1.506,0-2.26,0-.068-.015-.087-.085-.087q-2.1,0-4.2,0c-.066,0-.089.013-.088.085q0,2.264,0,4.528a.1.1,0,0,0,.081.108q1.023.321,2.045.647a.194.194,0,0,0,.124,0q1.018-.323,2.037-.643a.1.1,0,0,0,.082-.116C838.5-964.141,838.5-964.894,838.5-965.647Z" transform="translate(2618.008 4735.336)" fill="#f6ed00"/>
    <path id="패스_6201" data-name="패스 6201" d="M614.9-1108.469c.086-.269.167-.539.259-.805a.113.113,0,0,0-.054-.155c-.232-.163-.461-.333-.712-.515h.371c.181,0,.363,0,.544,0a.078.078,0,0,0,.09-.066c.085-.269.173-.537.26-.806.005-.017.005-.036.029-.049.092.283.184.561.271.841a.093.093,0,0,0,.108.079c.291,0,.582,0,.9,0l-.206.151c-.171.124-.341.252-.516.371a.1.1,0,0,0-.043.143c.088.261.172.525.257.787,0,.014.017.027,0,.048-.239-.173-.478-.344-.714-.519a.092.092,0,0,0-.134,0c-.231.173-.466.34-.7.509Z" transform="translate(2833.543 4875.424)" fill="#fcf000"/>
    <path id="패스_6202" data-name="패스 6202" d="M1170.833-1109.14c-.255-.185-.49-.352-.721-.525a.1.1,0,0,0-.149,0c-.231.173-.466.34-.7.51-.024-.022,0-.041,0-.058.085-.263.168-.526.257-.788a.088.088,0,0,0-.04-.12c-.238-.169-.473-.341-.71-.514.018-.03.045-.015.066-.015.274,0,.547,0,.821,0a.083.083,0,0,0,.1-.069c.083-.264.17-.526.255-.788.006-.02.015-.039.028-.075l.251.773c.051.158.051.158.215.158h.818l-.177.13c-.184.134-.367.269-.553.4a.088.088,0,0,0-.041.12C1170.645-1109.726,1170.734-1109.445,1170.833-1109.14Z" transform="translate(2289.399 4876.133)" fill="#fcf000"/>
    <path id="패스_6203" data-name="패스 6203" d="M892.885-1187.476c-.231-.167-.464-.332-.693-.5a.092.092,0,0,0-.133,0c-.211.159-.427.311-.641.466l-.089.061c.094-.292.181-.566.273-.839a.108.108,0,0,0-.046-.15c-.215-.148-.424-.3-.635-.458l-.084-.062h.492c.126,0,.253-.007.378,0,.092.007.125-.029.15-.112.082-.27.172-.537.266-.826.086.271.167.521.247.772.052.163.051.164.219.164h.816l-.508.369c-.072.052-.142.108-.217.156a.1.1,0,0,0-.046.133c.092.27.177.543.264.814Z" transform="translate(2562.203 4953)" fill="#fcf000"/>
    <path id="패스_6204" data-name="패스 6204" d="M1155.326-418.4a3.778,3.778,0,0,1,.5-.742,4.025,4.025,0,0,1,.438-.434c.025-.022.077-.042.042-.085s-.071,0-.1.025c-.21.179-.412.368-.635.532a.154.154,0,0,1-.1.048,1.588,1.588,0,0,0,.262-.689.152.152,0,0,1,.035-.092,1.829,1.829,0,0,1,1.046-.535c.012,0,.024,0,.044,0-.139.333-.212.683-.363,1.006a1.489,1.489,0,0,1-.487.59A2.952,2.952,0,0,1,1155.326-418.4Z" transform="translate(2302.596 4197.676)" fill="#faef00"/>
    <path id="패스_6205" data-name="패스 6205" d="M680.4-419.187a2.509,2.509,0,0,1-.881-.546,1.572,1.572,0,0,1-.365-.59c-.105-.274-.16-.566-.293-.841a1.534,1.534,0,0,1,.58.174,2.129,2.129,0,0,1,.492.354.163.163,0,0,1,.058.091,1.694,1.694,0,0,0,.238.671s0,.011,0,.019c-.039.009-.06-.024-.085-.042-.2-.148-.38-.32-.571-.48-.021-.018-.042-.036-.064-.052s-.044-.053-.076-.014,0,.056.02.077c.1.089.2.175.292.267A3.566,3.566,0,0,1,680.4-419.187Z" transform="translate(2770.271 4198.453)" fill="#faef00"/>
    <path id="패스_6206" data-name="패스 6206" d="M622.738-420.1a2.153,2.153,0,0,1-.533-.489,1.179,1.179,0,0,0-.22-.247c-.021-.017-.043-.04-.072-.014s-.022.054,0,.081.024.028.036.042a6.978,6.978,0,0,1,.691.968,2.61,2.61,0,0,1-1.6-1.925,2,2,0,0,1,.39.154,5.235,5.235,0,0,1,.77.485.143.143,0,0,1,.058.079,1.958,1.958,0,0,0,.5.85Z" transform="translate(2827.019 4198.967)" fill="#faef00"/>
    <path id="패스_6207" data-name="패스 6207" d="M650.87-869c0-.091,0-.18,0-.268s-.035-.106-.109-.055a3.717,3.717,0,0,1-.4.239,3.535,3.535,0,0,1,1.483-1.579s.006.008.005.01a5.5,5.5,0,0,0-.26,1.135,1.3,1.3,0,0,1-.09.28.632.632,0,0,1-.312.347c-.105.048-.2.115-.31.178a.178.178,0,0,1,.043-.093l.492-.778c.019-.03.055-.062.015-.1s-.07,0-.1.023a1.319,1.319,0,0,0-.329.416C650.952-869.164,650.912-869.082,650.87-869Z" transform="translate(2798.248 4639.659)" fill="#f9ee00"/>
    <path id="패스_6208" data-name="패스 6208" d="M701.164-337.836a5.031,5.031,0,0,0,1.159.645.483.483,0,0,1,.19.127,1.952,1.952,0,0,0,.909.568,6.522,6.522,0,0,0,.626.186.325.325,0,0,1,.083.032,4.644,4.644,0,0,1-.774-.093,3.263,3.263,0,0,1-.473-.121.8.8,0,0,1-.3-.184c-.02-.02-.04-.055-.075-.022s-.009.056.005.083a.269.269,0,0,0,.1.093,2.5,2.5,0,0,0,.812.286.839.839,0,0,1,.139.038,1.86,1.86,0,0,1-.632-.05,2.163,2.163,0,0,1-1.05-.617,6.431,6.431,0,0,1-.7-.9C701.173-337.786,701.153-337.8,701.164-337.836Z" transform="translate(2748.38 4116.662)" fill="#f8ed00"/>
    <path id="패스_6209" data-name="패스 6209" d="M1054.282-344.193a4.622,4.622,0,0,0-.37.6,1.339,1.339,0,0,1-.483.507,3.333,3.333,0,0,1-1.088.4c.068-.052.134-.107.2-.156a5.383,5.383,0,0,1,.656-.373l.066-.033c.028-.014.044-.035.03-.067s-.045-.028-.071-.016c-.077.039-.151.082-.228.119a1.725,1.725,0,0,1-.862.208c.01-.044.046-.051.073-.064a1.522,1.522,0,0,0,.563-.45.315.315,0,0,1,.114-.09,7,7,0,0,1,.757-.287,2.626,2.626,0,0,0,.584-.289c.017-.012.033-.031.056-.011Z" transform="translate(2403.882 4122.91)" fill="#faef00"/>
    <path id="패스_6210" data-name="패스 6210" d="M751.327-343.249a5.212,5.212,0,0,0,1.123.478.836.836,0,0,1,.431.279,1.318,1.318,0,0,0,.477.37c.023.012.053.015.071.052a.974.974,0,0,1-.362-.021,2.663,2.663,0,0,1-.664-.266c-.024-.013-.049-.025-.075-.036s-.049-.01-.062.019a.046.046,0,0,0,.024.062c.024.014.049.026.073.038a3.962,3.962,0,0,1,.877.543,3.15,3.15,0,0,1-1.292-.554,1.1,1.1,0,0,1-.284-.345,5.894,5.894,0,0,0-.354-.6Z" transform="translate(2699.156 4121.976)" fill="#f9ee00"/>
    <path id="패스_6211" data-name="패스 6211" d="M724.716-906.976a4.817,4.817,0,0,1,.509-.543c.018-.017.037-.033.053-.051s.039-.044.013-.072-.049-.009-.071.009a4.606,4.606,0,0,0-.848.867c-.009.013-.014.028-.036.025a2.644,2.644,0,0,1,.254-.98.375.375,0,0,1,.145-.16,3.636,3.636,0,0,1,1.2-.483c.036-.007.072-.012.108-.017.011.035-.016.047-.03.064a5.7,5.7,0,0,0-.431.63,1.47,1.47,0,0,1-.647.622c-.069.032-.136.071-.2.107Z" transform="translate(2725.631 4676.68)" fill="#faef00"/>
    <path id="패스_6212" data-name="패스 6212" d="M1058.112-337.25c-.146.2-.271.409-.423.6a2.7,2.7,0,0,1-1.081.878,1.9,1.9,0,0,1-.9.135c.165-.041.331-.075.493-.126a2.022,2.022,0,0,0,.422-.181.306.306,0,0,0,.137-.132c.009-.02.016-.04-.005-.058a.037.037,0,0,0-.057,0,1.542,1.542,0,0,1-.883.345,3.576,3.576,0,0,1-.7.072c.084-.023.169-.047.253-.069a4.22,4.22,0,0,0,.938-.346,1.41,1.41,0,0,0,.428-.343.8.8,0,0,1,.257-.175c.2-.107.416-.182.614-.294a3.763,3.763,0,0,0,.439-.286c.019-.015.035-.049.069-.024Z" transform="translate(2400.959 4116.096)" fill="#f9ee00"/>
    <path id="패스_6213" data-name="패스 6213" d="M1169.912-865.465l-.495-.283a.159.159,0,0,1-.081-.1,1.373,1.373,0,0,0-.442-.749.09.09,0,0,1-.027-.036,6.26,6.26,0,0,1-.231-.7,3.155,3.155,0,0,1,1.495,1.32.168.168,0,0,1-.08-.038c-.08-.047-.105-.033-.113.061a1.586,1.586,0,0,0,.01.272c-.054-.1-.106-.2-.164-.3a1.143,1.143,0,0,0-.3-.358c-.027-.02-.056-.06-.1-.025s0,.068.014.1q.261.418.524.835Z" transform="translate(2289.531 4636.393)" fill="#faef00"/>
    <path id="패스_6214" data-name="패스 6214" d="M1094.275-912.119c-.224-.205-.5-.337-.727-.524-.022-.018-.045-.053-.077-.016s0,.061.023.085c.144.125.287.25.43.377.093.083.184.17.276.255-.023.032-.042.016-.059.008-.31-.147-.628-.277-.944-.412a.866.866,0,0,1-.17-.09.284.284,0,0,1-.14-.251c.007-.178,0-.356,0-.535,0-.056.017-.064.063-.045a4.294,4.294,0,0,1,1.138.632.22.22,0,0,1,.08.128C1094.2-912.377,1094.239-912.249,1094.275-912.119Z" transform="translate(2363.884 4681.484)" fill="#faef00"/>
    <path id="패스_6215" data-name="패스 6215" d="M587.971-697.92q2.241,0,4.482,0c.091,0,.109.025.108.112q0,2.218,0,4.436c0,.092-.026.108-.112.108q-6.931,0-13.861,0c-.091,0-.116-.019-.115-.114q.005-2.218,0-4.436c0-.084.02-.106.105-.106q2.246,0,4.491,0v.034q-2.227,0-4.455,0c-.087,0-.114.021-.114.111q0,2.186,0,4.372c0,.1.033.114.121.114q6.894,0,13.789,0c.1,0,.116-.028.116-.119q0-2.181,0-4.363c0-.1-.027-.117-.119-.116q-2.218,0-4.437,0C587.971-697.9,587.971-697.909,587.971-697.92Z" transform="translate(2868.804 4470.104)" fill="#0c558d"/>
    <path id="패스_6216" data-name="패스 6216" d="M993.16-334.423c-.033-.055,0-.081.029-.107a1.233,1.233,0,0,1,.365-.191,5.449,5.449,0,0,1,.766-.194,3.117,3.117,0,0,0,.737-.231,2.137,2.137,0,0,1-.9.921.575.575,0,0,1-.433.055,1.117,1.117,0,0,0-.32-.032c-.1,0-.207,0-.312,0a.128.128,0,0,1,.073-.086,3.19,3.19,0,0,1,.82-.388c.032-.008.073-.017.061-.063s-.048-.032-.083-.025A1.653,1.653,0,0,0,993.16-334.423Z" transform="translate(2461.837 4114.023)" fill="#f9ee00"/>
    <path id="패스_6217" data-name="패스 6217" d="M821.073-334.311a2,2,0,0,0-.854.029.151.151,0,0,1-.089-.009,1.472,1.472,0,0,1-.765-.547c-.1-.145-.217-.279-.314-.45a10.418,10.418,0,0,0,1.384.392,1.53,1.53,0,0,1,.529.27c.029.024.07.045.04.105a1.652,1.652,0,0,0-.641-.329c-.077-.021-.155-.037-.232-.057-.033-.008-.063-.014-.072.029s.019.058.05.065a3.121,3.121,0,0,1,.884.422.6.6,0,0,1,.061.042C821.059-334.345,821.061-334.335,821.073-334.311Z" transform="translate(2632.666 4114.161)" fill="#f9ee00"/>
    <path id="패스_6218" data-name="패스 6218" d="M612.054-792.714a2.164,2.164,0,0,1-.12.621,7.285,7.285,0,0,1-.342.8.1.1,0,0,1-.106.066,1.3,1.3,0,0,0-.2,0c-.08.007-.082-.029-.055-.085s.068-.137.1-.205c.013-.025.032-.05,0-.072s-.058,0-.078.022a.732.732,0,0,0-.125.254.162.162,0,0,1-.206.083c-.034-.02-.009-.049,0-.072a3.562,3.562,0,0,1,.324-.709A1.993,1.993,0,0,1,612.054-792.714Z" transform="translate(2836.97 4563.146)" fill="#faef00"/>
    <path id="패스_6219" data-name="패스 6219" d="M1112.675-854.4a3.274,3.274,0,0,0-.735-.5.5.5,0,0,1-.171-.177,5.115,5.115,0,0,1-.345-.555,1.989,1.989,0,0,0-.277-.387.048.048,0,0,1,.047,0c.344.153.7.287,1.026.474a1.157,1.157,0,0,1,.565.717c0,.016.019.033,0,.055a5.89,5.89,0,0,1-.709-.555c-.028-.024-.056-.048-.083-.073s-.042-.031-.064-.009-.018.049,0,.072l.128.132a3.541,3.541,0,0,1,.622.8Z" transform="translate(2345.959 4625.292)" fill="#f9ee00"/>
    <path id="패스_6220" data-name="패스 6220" d="M719.777-856.029a4.152,4.152,0,0,0-.237.41,2.386,2.386,0,0,1-1.112,1.15.442.442,0,0,1-.137.057c.047-.079.089-.161.142-.236a5.59,5.59,0,0,1,.531-.612l.088-.094a.04.04,0,0,0,0-.064c-.023-.024-.044-.013-.064,0s-.032.029-.047.044a5.625,5.625,0,0,1-.645.521.145.145,0,0,1-.085.043,1.16,1.16,0,0,1,.518-.669,4.055,4.055,0,0,1,.4-.2c.221-.1.431-.229.645-.348Z" transform="translate(2731.643 4625.293)" fill="#f9ee00"/>
    <path id="패스_6221" data-name="패스 6221" d="M1201.8-416.433a1.94,1.94,0,0,0,.544-.9.1.1,0,0,1,.033-.054,3.562,3.562,0,0,1,.956-.588,3.124,3.124,0,0,1-1.258,1.708,4.178,4.178,0,0,1,.471-.694c.043-.048.086-.1.127-.146.021-.026.048-.058.019-.09s-.062,0-.086.02a1.151,1.151,0,0,0-.2.218,2.4,2.4,0,0,1-.6.545Z" transform="translate(2256.984 4195.326)" fill="#f9ee00"/>
    <path id="패스_6222" data-name="패스 6222" d="M818.857-248.914a.626.626,0,0,0,.032.21c.023.049,0,.063-.041.077a1.467,1.467,0,0,1-.723.069,3.274,3.274,0,0,1-1.249-.491c-.01-.006-.022-.011-.015-.04a10.867,10.867,0,0,0,2.126-.092.272.272,0,0,1-.163.138,2.262,2.262,0,0,1-.537.184.783.783,0,0,1-.248-.007c-.033,0-.076-.016-.086.027s.039.061.072.064a1.1,1.1,0,0,0,.791-.115C818.826-248.9,818.837-248.9,818.857-248.914Z" transform="translate(2634.817 4029.643)" fill="#f8ed00"/>
    <path id="패스_6223" data-name="패스 6223" d="M1188.085-789.174c.271.191.568.342.847.52a1.839,1.839,0,0,1,.654.859c.019.042,0,.047-.035.046a.76.76,0,0,0-.12,0,.11.11,0,0,1-.119-.062,4.406,4.406,0,0,0-.462-.608.753.753,0,0,0-.089-.08c-.025-.019-.054-.034-.084-.01s-.008.055.008.08c.128.191.257.382.385.574a.151.151,0,0,1,.044.087h-.284a.061.061,0,0,1-.053-.028,1.689,1.689,0,0,1-.329-.589,2.351,2.351,0,0,0-.383-.781Z" transform="translate(2270.461 4559.672)" fill="#f9ee00"/>
    <path id="패스_6224" data-name="패스 6224" d="M1243.805-792.464a2.4,2.4,0,0,1,.568.432,2.453,2.453,0,0,1,.582.981c.022.069,0,.071-.058.076a.131.131,0,0,1-.159-.108.525.525,0,0,0-.105-.2c-.023-.026-.039-.085-.09-.05s-.011.071.009.1a.944.944,0,0,1,.1.2c.013.038.01.06-.037.055a.067.067,0,0,0-.018,0,.19.19,0,0,1-.243-.146,2.15,2.15,0,0,0-.3-.516A1.681,1.681,0,0,1,1243.805-792.464Z" transform="translate(2215.75 4562.901)" fill="#faef00"/>
    <path id="패스_6225" data-name="패스 6225" d="M989.82-248.718a11.023,11.023,0,0,0,2.064.085l.006.024c-.061.036-.122.075-.185.109a2.935,2.935,0,0,1-1.249.409,1.353,1.353,0,0,1-.509-.061c-.042-.014-.06-.029-.041-.078s.009-.148.044-.169.1.047.161.065a1.481,1.481,0,0,0,.621.008c.03,0,.063-.02.053-.061s-.042-.033-.069-.028a1.347,1.347,0,0,1-.756-.151A.189.189,0,0,1,989.82-248.718Z" transform="translate(2465.048 4029.189)" fill="#f8ed00"/>
    <path id="패스_6226" data-name="패스 6226" d="M1104.207-404.478a4.055,4.055,0,0,1,1.406-1.387,1.161,1.161,0,0,0-.17.506,1.161,1.161,0,0,1-.541.779,2.127,2.127,0,0,1-.55.2c-.04.013-.082.023-.127.036.073-.076.14-.149.211-.218a1.8,1.8,0,0,0,.313-.372c.015-.025.053-.057.005-.085s-.059.014-.078.041A2.684,2.684,0,0,1,1104.207-404.478Z" transform="translate(2352.772 4183.436)" fill="#f9ee00"/>
    <path id="패스_6227" data-name="패스 6227" d="M737.557-406.045a4.25,4.25,0,0,1,1.418,1.387.217.217,0,0,1-.091-.065,2.484,2.484,0,0,1-.384-.434c-.02-.029-.041-.061-.08-.037s-.019.06,0,.088a2.821,2.821,0,0,0,.43.479.438.438,0,0,1,.091.111c-.153-.051-.308-.1-.459-.155a1.124,1.124,0,0,1-.764-.951A1.1,1.1,0,0,0,737.557-406.045Z" transform="translate(2712.656 4183.613)" fill="#f9ee00"/>
    <path id="패스_6228" data-name="패스 6228" d="M654.224-790.045a2.706,2.706,0,0,0-.424.892,2.376,2.376,0,0,1-.3.514.047.047,0,0,1-.047.021h-.294a.2.2,0,0,1,.056-.111c.128-.187.259-.373.373-.569.016-.027.05-.058.011-.089s-.062.006-.087.027a2.18,2.18,0,0,0-.409.483c-.048.071-.1.142-.143.215a.084.084,0,0,1-.081.046c-.086,0-.094-.009-.054-.086a5.3,5.3,0,0,0,.237-.529.449.449,0,0,1,.157-.21,1.756,1.756,0,0,1,.213-.144c.268-.143.522-.309.776-.474Z" transform="translate(2795.844 4560.54)" fill="#f9ee00"/>
    <path id="패스_6229" data-name="패스 6229" d="M1121.852-806.915a.594.594,0,0,1,.16.1,3.136,3.136,0,0,0,.479.255,2.206,2.206,0,0,1,.66.476.576.576,0,0,1,.158.252,2.01,2.01,0,0,0-.495-.24,1.323,1.323,0,0,1-.194-.122c-.032-.019-.067-.067-.1-.018s.021.075.053.1c.172.119.345.236.517.354.078.053.155.108.229.168a3.055,3.055,0,0,1-.893-.325.667.667,0,0,1-.2-.179A3.009,3.009,0,0,1,1121.852-806.915Z" transform="translate(2335.452 4577.085)" fill="#f9ee00"/>
    <path id="패스_6230" data-name="패스 6230" d="M847.676-279.106a3.015,3.015,0,0,0,.94-.069,1.618,1.618,0,0,1,.576.031c.077.017.134.069.27.237a4.565,4.565,0,0,0-.721-.028c-.033,0-.069,0-.075.034s.034.053.066.062a.864.864,0,0,0,.265.022c.126-.006.251.011.383.018-.023.061-.076.062-.119.072a2.387,2.387,0,0,1-.932-.019A1.3,1.3,0,0,1,847.676-279.106Z" transform="translate(2604.569 4059.097)" fill="#f8ed00"/>
    <path id="패스_6231" data-name="패스 6231" d="M976.044-278.735a2.559,2.559,0,0,1,.414-.021.521.521,0,0,0,.191-.021c.031-.012.086,0,.079-.056s-.056-.035-.09-.033a4.432,4.432,0,0,0-.666.011.6.6,0,0,1,.523-.269,2.985,2.985,0,0,1,.558.054,1.763,1.763,0,0,0,.66.021C977.482-278.7,976.293-278.467,976.044-278.735Z" transform="translate(2478.64 4059.033)" fill="#f8ed00"/>
    <path id="패스_6232" data-name="패스 6232" d="M1093.813-863.445a1.036,1.036,0,0,1-.436-.325,3.275,3.275,0,0,0-.245-.322c-.025-.026-.052-.066-.091-.035s0,.066.016.093a2.985,2.985,0,0,0,.222.282,1.178,1.178,0,0,1,.211.472c-.18-.116-.331-.234-.484-.35-.027-.02-.024-.047-.024-.075v-.856c.032-.011.046.015.063.029a1.932,1.932,0,0,1,.431.5c.118.19.229.384.344.576Z" transform="translate(2363.788 4633.669)" fill="#f9ee00"/>
    <path id="패스_6233" data-name="패스 6233" d="M717.06-802.938a.465.465,0,0,1,.2-.285c.249-.158.495-.32.732-.494a3.721,3.721,0,0,1,.426-.237c.021.023-.006.038-.014.052a3.782,3.782,0,0,1-.644.882.524.524,0,0,1-.352.177c-.058,0-.115.015-.174.023,0-.035.032-.043.053-.056.134-.092.27-.181.406-.271a.85.85,0,0,0,.1-.068c.029-.026.089-.049.052-.1s-.078,0-.108.023a1.518,1.518,0,0,1-.375.192,1.58,1.58,0,0,0-.3.159Z" transform="translate(2732.775 4574.179)" fill="#f6ed00"/>
    <path id="패스_6234" data-name="패스 6234" d="M786.006-910.1a6.435,6.435,0,0,1,.77-1.074c0,.18,0,.342,0,.505a.063.063,0,0,1-.023.038,3.372,3.372,0,0,1-.743.534Z" transform="translate(2665.101 4679.423)" fill="#f6ed00"/>
    <path id="패스_6235" data-name="패스 6235" d="M697.091-740.691a1.427,1.427,0,0,1-.344.508c-.026.025-.057.018-.087.019h-.249c0-.048.035-.078.051-.116s.041-.053.005-.08-.058-.005-.084.014a1.009,1.009,0,0,0-.16.151c-.016.018-.032.048-.059.03s0-.044.013-.061a.8.8,0,0,1,.624-.418C696.9-740.653,696.988-740.674,697.091-740.691Z" transform="translate(2753.296 4512.083)" fill="#f6ed00"/>
    <path id="패스_6236" data-name="패스 6236" d="M619.522-429.825a1.171,1.171,0,0,1-.207-.163c-.024-.02-.048-.045-.08-.016s-.008.057.007.082a1.161,1.161,0,0,1,.124.2,4.508,4.508,0,0,0-.948-.467c.029-.041.056-.028.078-.028.239,0,.479,0,.718,0a.147.147,0,0,1,.138.069A1.1,1.1,0,0,1,619.522-429.825Z" transform="translate(2829.596 4207.343)" fill="#f8ed00"/>
    <path id="패스_6237" data-name="패스 6237" d="M1239.6-429.682c.03-.045.06-.09.088-.136.017-.027.048-.056.009-.088s-.061.008-.085.026a1.247,1.247,0,0,1-.205.16.894.894,0,0,1,.24-.4.087.087,0,0,1,.052-.011h.809a.653.653,0,0,1-.135.188c0-.119-.06-.1-.122-.074A4.2,4.2,0,0,0,1239.6-429.682Z" transform="translate(2220.067 4207.25)" fill="#f6ed00"/>
    <path id="패스_6238" data-name="패스 6238" d="M1170.143-739.5c.25.086.485.151.717.224.1.032.15.156.215.245,0,.005,0,.021,0,.023s-.026.012-.033.007a.225.225,0,0,1-.047-.042.7.7,0,0,0-.15-.135c-.021-.013-.043-.029-.067-.01a.055.055,0,0,0-.008.075c.017.032.038.062.063.1-.143.012-.274.046-.382-.095A3.3,3.3,0,0,1,1170.143-739.5Z" transform="translate(2288.052 4510.91)" fill="#f6ed00"/>
    <path id="패스_6239" data-name="패스 6239" d="M674.624-429.794a1.956,1.956,0,0,0-.966-.42.15.15,0,0,1-.1-.054c.017-.028.044-.013.065-.013.236,0,.473,0,.709,0a.2.2,0,0,1,.142.049,1.14,1.14,0,0,1,.273.267h0a1.107,1.107,0,0,1-.246-.109c-.031-.013-.061-.028-.092-.042s-.072-.041-.1.006.021.057.049.074a1.114,1.114,0,0,1,.242.195.323.323,0,0,1,.029.044Z" transform="translate(2775.478 4207.406)" fill="#f6ed00"/>
    <path id="패스_6240" data-name="패스 6240" d="M1180.028-429.691a1.524,1.524,0,0,1,.241-.2c.023-.018.059-.033.033-.072s-.054-.021-.082-.007l-.345.169a.643.643,0,0,1,.484-.324h.682a.091.091,0,0,1,.023.009c-.042.073-.117.073-.181.082a1.7,1.7,0,0,0-.692.261l-.147.094Z" transform="translate(2278.501 4207.246)" fill="#f6ed00"/>
    <path id="패스_6241" data-name="패스 6241" d="M778.585-851.188c-.044-.042-.072-.019-.114.013-.258.2-.505.417-.8.607a.544.544,0,0,1,.148-.228c.244-.225.492-.445.74-.666a.229.229,0,0,1,.034-.019v.287Z" transform="translate(2673.283 4620.828)" fill="#f6ed00"/>
    <path id="패스_6242" data-name="패스 6242" d="M791.6-835.93l.007-.005c.021.328.022.329-.24.52-.131.1-.266.188-.4.281-.011.008-.022.024-.039.009h0a1.165,1.165,0,0,1,.307-.446,2.56,2.56,0,0,0,.3-.271A.2.2,0,0,0,791.6-835.93Z" transform="translate(2660.27 4605.57)" fill="#f2eb03"/>
    <path id="패스_6243" data-name="패스 6243" d="M793.861-874.275c-.018-.021-.006-.038,0-.058a2.959,2.959,0,0,1,.561-.78c.012-.012.02-.033.052-.025,0,.089,0,.179,0,.27,0,.041-.031.057-.055.079l-.494.441a.216.216,0,0,0-.068.073Z" transform="translate(2657.4 4644.051)" fill="#f6ed00"/>
    <path id="패스_6244" data-name="패스 6244" d="M696.619-314.973a3.536,3.536,0,0,1-1.019-.9c.153.076.331.1.443.26a2.813,2.813,0,0,0,.542.575C696.6-315.021,696.63-315.012,696.619-314.973Z" transform="translate(2753.839 4095.102)" fill="#f6ed00"/>
    <path id="패스_6245" data-name="패스 6245" d="M813.886-918.779a.677.677,0,0,1,.216-.1c.024-.009.035.005.033.028s.008.056-.019.051C814.041-918.818,813.974-918.777,813.886-918.779Z" transform="translate(2637.735 4686.99)" fill="#f2eb03"/>
    <path id="패스_6246" data-name="패스 6246" d="M712.85-336.7c.02.014.042.026.037.057-.031,0-.04-.027-.058-.042Z" transform="translate(2736.927 4115.545)" fill="#faef00"/>
    <path id="패스_6247" data-name="패스 6247" d="M1186.072-791.428c-.01-.012-.036-.024-.022-.039s.025.01.033.022Z" transform="translate(2272.443 4561.926)" fill="#f9ee00"/>
    <path id="패스_6248" data-name="패스 6248" d="M728.979-791.03a.028.028,0,0,1,.044-.013v0l-.031.029Z" transform="translate(2721.075 4561.512)" fill="#f9ee00"/>
    <path id="패스_6249" data-name="패스 6249" d="M1187.266-406.693a.021.021,0,0,1-.033.011l.018-.025Z" transform="translate(2271.278 4184.262)" fill="#f6ed00"/>
    <path id="패스_6250" data-name="패스 6250" d="M750.373-344.012l-.018-.025c.015-.008.027-.006.034.01Z" transform="translate(2700.094 4122.753)" fill="#f9ee00"/>
    <path id="패스_6251" data-name="패스 6251" d="M1200.208-334.231c-.015,0-.03.017-.042,0l.03-.011Z" transform="translate(2258.583 4113.14)" fill="#f9ee00"/>
    <path id="패스_6252" data-name="패스 6252" d="M1001.8-1059.407c0,.007.006.019,0,.021s-.014,0-.017-.009Z" transform="translate(2453.303 4824.918)" fill="#fcf000"/>
    <path id="패스_6253" data-name="패스 6253" d="M716.559-748.991l0,.007h0l.011,0Z" transform="translate(2733.275 4520.23)" fill="#f6ed00"/>
    <path id="패스_6254" data-name="패스 6254" d="M1237.8-766.491c0,.008.017.016,0,.024s-.01-.008-.016-.012Z" transform="translate(2221.655 4537.407)" fill="#faef00"/>
    <path id="패스_6255" data-name="패스 6255" d="M1193.91-768.5c0,.008.006.021,0,.022s-.014,0-.016-.012Z" transform="translate(2264.736 4539.379)" fill="#f9ee00"/>
    <path id="패스_6256" data-name="패스 6256" d="M738.044-413.127l.008.011h-.007v-.012Z" transform="translate(2712.178 4190.565)" fill="#f6ed00"/>
    <path id="패스_6257" data-name="패스 6257" d="M790.559-792.047v.012h-.008l.009-.01Z" transform="translate(2660.639 4562.492)" fill="#f2eb03"/>
    <path id="패스_6258" data-name="패스 6258" d="M731.147-790.9l0,0h0Z" transform="translate(2718.951 4561.366)" fill="#f9ee00"/>
    <path id="패스_6259" data-name="패스 6259" d="M731.536-404.069l.012.01-.022,0Z" transform="translate(2718.575 4181.673)" fill="#f6ed00"/>
    <path id="패스_6260" data-name="패스 6260" d="M1168.014-344.26l-.009-.01.007.009Z" transform="translate(2290.151 4122.978)" fill="#faef00"/>
    <path id="패스_6261" data-name="패스 6261" d="M1137.963-804.506c.008.007.01.014,0,.022l-.01-.012Z" transform="translate(2319.646 4574.721)" fill="#f9ee00"/>
    <path id="패스_6262" data-name="패스 6262" d="M793.507-829.009l-.016-.007c.013-.016.011,0,.016.007Z" transform="translate(2657.754 4598.784)" fill="#f6ed00"/>
    <path id="패스_6263" data-name="패스 6263" d="M1216.966-337.52l-.013-.013h0l.007.014Z" transform="translate(2242.106 4116.366)" fill="#f9ee00"/>
    <path id="패스_6264" data-name="패스 6264" d="M1187.472-790.045a.018.018,0,0,1-.011-.011l.011-.017.02.017Z" transform="translate(2271.054 4560.554)" fill="#f9ee00"/>
    <path id="패스_6265" data-name="패스 6265" d="M744.09-832.174c-.009.005-.019.016-.027,0s.009-.011.014-.017Z" transform="translate(2706.271 4601.894)" fill="#faef00"/>
    <path id="패스_6266" data-name="패스 6266" d="M785.273-852.994l-.008.013-.009-.009.014-.007Z" transform="translate(2665.837 4622.317)" fill="#f6ed00"/>
    <path id="패스_6267" data-name="패스 6267" d="M802.977-856.6l.006-.013c.008.012,0,.012-.008.011Z" transform="translate(2648.445 4625.861)" fill="#f9ee00"/>
    <path id="패스_6268" data-name="패스 6268" d="M641.374-981.1c-.008,0-.017.01-.022,0s.006-.008.01-.013Z" transform="translate(2807.086 4748.066)" fill="#fcf000"/>
    <path id="패스_6269" data-name="패스 6269" d="M633.5-668.847a3.867,3.867,0,0,1,1.753.536,1.362,1.362,0,0,1,.627.711,1.128,1.128,0,0,1,.027.7.717.717,0,0,1-.35.444c-.07.038-.057.063-.022.115.192.289.38.58.57.871l.042.066-.585-.054c-.1-.01-.208-.027-.312-.029a.185.185,0,0,1-.172-.108,4.617,4.617,0,0,0-.525-.755.8.8,0,0,0-.23-.191c0,.108,0,.2,0,.3,0,.178,0,.356,0,.535,0,.028.012.067-.041.061-.262-.025-.526-.036-.787-.077q0-.576,0-1.153Q633.495-667.865,633.5-668.847Zm2.51,3.359c-.028-.045-.043-.071-.059-.1-.176-.26-.349-.52-.529-.777-.045-.064-.057-.1.031-.127a.54.54,0,0,0,.266-.219.92.92,0,0,0,.048-.948,1.554,1.554,0,0,0-.759-.711,4.216,4.216,0,0,0-1.367-.388c-.07-.01-.066.026-.066.073q0,1.411,0,2.822c0,.067.027.083.085.087.165.012.331.025.5.044.075.009.1-.008.1-.089-.005-.252,0-.5,0-.756,0-.082.026-.089.091-.058a1.012,1.012,0,0,1,.323.27,5.15,5.15,0,0,1,.485.717c.018.031.03.069.075.074Z" transform="translate(2814.802 4441.565)" fill="#f7e905"/>
    <path id="패스_6270" data-name="패스 6270" d="M791.372-645.367a3.576,3.576,0,0,1,.6.026,3.527,3.527,0,0,1,1.051.218,1.387,1.387,0,0,1,.776.67,1.175,1.175,0,0,1,.119.516q0,.89,0,1.78c0,.071-.011.092-.089.082-.237-.033-.476-.056-.715-.079-.055-.005-.073-.023-.072-.079,0-.154,0-.307,0-.461,0-.055-.018-.075-.069-.084-.194-.033-.387-.068-.58-.108-.057-.012-.068.006-.068.057,0,.172,0,.344,0,.516,0,.036,0,.066-.051.061-.291-.028-.581-.054-.872-.081a.115.115,0,0,1-.026-.009Zm.083,1.515q0,.682,0,1.365c0,.046-.01.089.063.1.22.019.44.043.66.07.062.008.079-.01.078-.072,0-.169,0-.338,0-.507,0-.047.009-.076.068-.064.241.049.482.1.724.14.053.01.062.036.061.082,0,.144,0,.289,0,.433,0,.056.011.083.073.088.19.016.379.035.568.061.074.01.093-.007.093-.082,0-.581,0-1.162-.006-1.743a.875.875,0,0,0-.065-.323,1.35,1.35,0,0,0-.87-.78,4.693,4.693,0,0,0-1.389-.206c-.076,0-.056.048-.056.086Q791.455-644.53,791.455-643.852Z" transform="translate(2659.834 4418.523)" fill="#f7e905"/>
    <path id="패스_6271" data-name="패스 6271" d="M1173.914-655.034c0-.473,0-.947,0-1.42,0-.073.024-.092.091-.1.293-.032.585-.081.879-.1a1.389,1.389,0,0,1,1.254.5,1.454,1.454,0,0,1,.273.863,1.585,1.585,0,0,1-1.2,1.572,7.536,7.536,0,0,1-.853.146c-.121.022-.244.031-.365.052-.063.011-.078-.008-.078-.069C1173.915-654.069,1173.914-654.552,1173.914-655.034Zm.065-.009h0q0,.682,0,1.365c0,.045-.007.086.065.075.334-.052.671-.086,1-.151a1.527,1.527,0,0,0,1.282-1.483,1.257,1.257,0,0,0-1.376-1.347c-.306.015-.61.071-.915.106-.067.008-.063.051-.063.1Q1173.98-655.712,1173.98-655.043Z" transform="translate(2284.353 4429.603)" fill="#f7e905"/>
    <path id="패스_6272" data-name="패스 6272" d="M957.558-632.129c0-.474,0-.947,0-1.42,0-.039,0-.063.046-.073a3.076,3.076,0,0,1,1.486-.066.928.928,0,0,1,.7,1.217,1.013,1.013,0,0,1-.653.687,2.646,2.646,0,0,1-.66.164c-.065.009-.087.027-.086.1,0,.243,0,.486,0,.729,0,.068-.014.1-.089.1-.212.013-.423.032-.634.055-.079.009-.109,0-.108-.095.005-.464,0-.929,0-1.393Zm.765.437a2.173,2.173,0,0,0,.974-.275.785.785,0,0,0,.435-.673.84.84,0,0,0-.37-.847,1.269,1.269,0,0,0-.584-.181,4.274,4.274,0,0,0-1.1.092c-.063.012-.068.045-.068.1,0,.347,0,.694,0,1.041,0,.547,0,1.093,0,1.64,0,.074.024.088.09.08.131-.016.263-.025.394-.038a.2.2,0,0,0,.1-.009l.089-.006c.057-.04.029-.1.03-.15C958.321-631.177,958.321-631.435,958.323-631.692Z" transform="translate(2496.716 4407.12)" fill="#f7e905"/>
    <path id="패스_6273" data-name="패스 6273" d="M1095.91-644.7c0-.476,0-.953,0-1.429,0-.076.022-.1.094-.1.242-.018.484-.043.725-.067.05-.005.069,0,.069.06q0,1.443,0,2.886c0,.05-.014.068-.064.074-.253.031-.506.064-.758.1-.071.01-.064-.028-.064-.073Q1095.911-643.978,1095.91-644.7Zm.067,0c0,.458,0,.916,0,1.374,0,.056.007.084.075.073q.3-.048.612-.084c.06-.007.074-.03.074-.087q0-1.36,0-2.72c0-.076-.026-.086-.091-.078-.192.023-.385.044-.578.059-.076.006-.094.035-.094.108C1095.979-645.608,1095.978-645.156,1095.978-644.7Z" transform="translate(2360.917 4419.438)" fill="#f7e905"/>
    <path id="패스_6274" data-name="패스 6274" d="M632-668.847q0,.982,0,1.964,0,.576,0,1.153c-.037-.022-.026-.059-.026-.091q0-1.47,0-2.94C631.97-668.792,631.955-668.832,632-668.847Z" transform="translate(2816.297 4441.565)" fill="#0c558d"/>
    <path id="패스_6275" data-name="패스 6275" d="M789.952-645.109v3.026c-.04-.021-.025-.059-.025-.091q0-1.421,0-2.843C789.927-645.049,789.916-645.086,789.952-645.109Z" transform="translate(2661.254 4418.265)" fill="#0c558d"/>
    <path id="패스_6276" data-name="패스 6276" d="M846.5-957.823c0,.753,0,1.506,0,2.26a.1.1,0,0,1-.082.116q-1.02.318-2.037.643a.194.194,0,0,1-.124,0q-1.022-.325-2.045-.647a.1.1,0,0,1-.081-.108q0-2.264,0-4.528c0-.072.022-.085.088-.085q2.1,0,4.2,0c.071,0,.086.02.085.087C846.5-959.33,846.5-958.576,846.5-957.823Zm-3.162-2.282c-.357,0-.713,0-1.07-.005-.052,0-.069.018-.068.069,0,.372,0,.744,0,1.116-.009.553-.007,1.105,0,1.658l0,1.74a.082.082,0,0,0,.022.016l1.248.392.8.259a.125.125,0,0,0,.081,0l.54-.177,1.491-.467c.038-.012.043-.035.043-.069q0-.59,0-1.18,0-.8,0-1.591a.339.339,0,0,0,0-.037q0-.829,0-1.658c0-.02.007-.044-.014-.06a.326.326,0,0,0-.062-.012l-1.528,0Z" transform="translate(2610.011 4727.512)" fill="#111407"/>
    <path id="패스_6277" data-name="패스 6277" d="M640.121-660.694l-.788-.084c-.045,0-.057-.043-.075-.074a5.15,5.15,0,0,0-.485-.717,1.012,1.012,0,0,0-.323-.27c-.064-.031-.092-.024-.091.058,0,.252,0,.5,0,.756,0,.081-.025.1-.1.089-.165-.019-.33-.031-.5-.044-.057,0-.085-.02-.085-.087q0-1.411,0-2.822c0-.047,0-.083.066-.073a4.216,4.216,0,0,1,1.367.388,1.554,1.554,0,0,1,.759.711.92.92,0,0,1-.048.948.54.54,0,0,1-.266.219c-.088.031-.075.063-.031.127.179.257.353.518.529.777C640.078-660.765,640.093-660.739,640.121-660.694Zm-.783-1.847a.555.555,0,0,0-.247-.409,1.469,1.469,0,0,0-.664-.255c-.039-.007-.056,0-.056.046q0,.378,0,.755a.065.065,0,0,0,.036.067,1.685,1.685,0,0,0,.51.205C639.174-662.094,639.336-662.23,639.338-662.541Z" transform="translate(2810.687 4436.771)" fill="#ec1c24"/>
    <path id="패스_6278" data-name="패스 6278" d="M795.79-639.72q0-.678,0-1.355c0-.038-.02-.089.056-.086a4.693,4.693,0,0,1,1.389.206,1.35,1.35,0,0,1,.87.78.875.875,0,0,1,.065.323c0,.581,0,1.162.006,1.743,0,.075-.018.092-.093.082-.189-.026-.378-.044-.568-.061-.062-.005-.074-.032-.073-.088,0-.144,0-.289,0-.433,0-.046-.009-.073-.061-.082-.242-.044-.483-.091-.724-.14-.059-.012-.068.017-.068.064,0,.169,0,.338,0,.507,0,.061-.016.079-.078.072-.22-.027-.439-.051-.66-.07-.073-.006-.063-.049-.063-.095Q795.79-639.038,795.79-639.72Zm1.624.089a.619.619,0,0,0-.276-.592,1.031,1.031,0,0,0-.512-.125c-.045,0-.058.017-.057.06q0,.382,0,.764c0,.037.012.056.051.062.237.032.474.065.71.1.042.006.055-.01.059-.047C797.4-639.49,797.407-639.569,797.414-639.632Z" transform="translate(2655.499 4414.391)" fill="#ec1c24"/>
    <path id="패스_6279" data-name="패스 6279" d="M1177.535-651.161q0-.669,0-1.337c0-.048,0-.091.063-.1.305-.035.609-.091.915-.106a1.257,1.257,0,0,1,1.376,1.347,1.527,1.527,0,0,1-1.282,1.483c-.331.065-.668.1-1,.151-.071.011-.065-.03-.065-.075q0-.682,0-1.365Zm.729-.1c0,.221,0,.443,0,.664,0,.052.009.075.07.077a.81.81,0,0,0,.9-.792.613.613,0,0,0-.65-.752,1.235,1.235,0,0,0-.235.044.1.1,0,0,0-.087.114C1178.267-651.687,1178.263-651.471,1178.263-651.256Z" transform="translate(2280.797 4425.721)" fill="#ec1c24"/>
    <path id="패스_6280" data-name="패스 6280" d="M961.262-626.472l-.089.006c-.035-.031-.068-.044-.1.009-.131.012-.263.022-.394.038-.066.008-.09-.006-.09-.08,0-.547,0-1.093,0-1.64,0-.347,0-.694,0-1.041,0-.051.005-.084.068-.1a4.274,4.274,0,0,1,1.1-.092,1.269,1.269,0,0,1,.584.181.84.84,0,0,1,.37.847.785.785,0,0,1-.435.673,2.173,2.173,0,0,1-.974.275c-.056.01-.038.055-.038.088C961.261-627.028,961.262-626.75,961.262-626.472Zm.034-1.887c0,.1.006.191,0,.285-.006.079.027.095.1.087a2.107,2.107,0,0,0,.345-.052.622.622,0,0,0,.242-.128.351.351,0,0,0,.088-.373.3.3,0,0,0-.247-.243.9.9,0,0,0-.488.053c-.042.013-.034.046-.034.075C961.3-628.556,961.3-628.458,961.3-628.359Z" transform="translate(2493.739 4402.822)" fill="#ec1e24"/>
    <path id="패스_6281" data-name="패스 6281" d="M996.883-521.079c0-.278,0-.556,0-.834,0-.033-.018-.078.038-.088,0,.258,0,.515-.009.772C996.912-521.179,996.94-521.119,996.883-521.079Z" transform="translate(2458.117 4297.429)" fill="#ec1c24"/>
    <path id="패스_6282" data-name="패스 6282" d="M987-473.141c.027-.053.06-.039.1-.009A.2.2,0,0,1,987-473.141Z" transform="translate(2467.815 4249.506)" fill="#ec1c24"/>
    <path id="패스_6283" data-name="패스 6283" d="M1099.584-640.731c0-.452,0-.9,0-1.355,0-.073.018-.1.094-.108.193-.015.385-.036.578-.059.065-.008.092,0,.091.078q0,1.36,0,2.72c0,.057-.014.08-.074.087q-.307.036-.612.084c-.069.011-.075-.017-.075-.073C1099.585-639.815,1099.584-640.273,1099.584-640.731Z" transform="translate(2357.311 4415.464)" fill="#ec1c24"/>
    <path id="패스_6284" data-name="패스 6284" d="M850.309-956.184c.021.016.014.039.014.06q0,.829,0,1.658a.339.339,0,0,1,0,.037c-.02.019-.04.037-.059.057l-1.659,1.814-1.234,1.353-1.248-.392a.082.082,0,0,1-.022-.016c.03-.03.062-.059.091-.091l3.393-3.682C849.826-955.652,850.067-955.918,850.309-956.184Z" transform="translate(2606.118 4723.6)" fill="#fdfefd"/>
    <path id="패스_6285" data-name="패스 6285" d="M850.212-956.822c-.242.266-.483.532-.727.8l-3.393,3.682c-.029.031-.061.061-.091.091l0-1.74a.235.235,0,0,0,.028-.023q1.032-1.116,2.063-2.233c.179-.194.355-.39.532-.585l1.528,0A.326.326,0,0,1,850.212-956.822Z" transform="translate(2606.215 4724.238)" fill="#019856"/>
    <path id="패스_6286" data-name="패스 6286" d="M914.885-857.92l1.234-1.353,1.659-1.814c.018-.02.039-.038.059-.057q0,.8,0,1.591c-.119.132-.239.263-.357.4l-1.172,1.32-.54.177a.125.125,0,0,1-.081,0Z" transform="translate(2538.6 4630.314)" fill="#019856"/>
    <path id="패스_6287" data-name="패스 6287" d="M848.359-956.752c-.177.2-.353.391-.532.585q-1.031,1.117-2.063,2.233a.235.235,0,0,1-.028.023c-.006-.553-.008-1.105,0-1.658l1.134-1.18Z" transform="translate(2606.479 4724.157)" fill="#fdfefd"/>
    <path id="패스_6288" data-name="패스 6288" d="M992.005-773.217l1.172-1.32c.118-.133.238-.264.357-.4q0,.59,0,1.18c0,.034-.005.057-.043.069Z" transform="translate(2462.903 4545.693)" fill="#fdfefd"/>
    <path id="패스_6289" data-name="패스 6289" d="M846.981-956.9l-1.134,1.18c0-.372,0-.744,0-1.116,0-.052.016-.07.068-.069C846.268-956.906,846.624-956.906,846.981-956.9Z" transform="translate(2606.368 4724.312)" fill="#019856"/>
    <path id="패스_6290" data-name="패스 6290" d="M675.966-622.33c0,.311-.163.447-.42.41a1.685,1.685,0,0,1-.51-.205.065.065,0,0,1-.036-.067q0-.378,0-.755c0-.043.016-.053.056-.046a1.469,1.469,0,0,1,.664.255A.555.555,0,0,1,675.966-622.33Zm-.88-.224c0,.1,0,.2,0,.3,0,.024-.008.053.018.067a.965.965,0,0,0,.546.195.224.224,0,0,0,.2-.152.4.4,0,0,0-.1-.457,1.2,1.2,0,0,0-.6-.3c-.047-.009-.067,0-.065.053C675.089-622.75,675.086-622.652,675.086-622.553Z" transform="translate(2774.058 4396.56)" fill="#f2eb03"/>
    <path id="패스_6291" data-name="패스 6291" d="M838.851-596.392c-.006.063-.015.142-.022.221,0,.037-.016.053-.059.047-.237-.035-.473-.068-.71-.1-.039-.005-.051-.025-.051-.062q0-.382,0-.764c0-.043.013-.06.057-.06a1.031,1.031,0,0,1,.512.125A.619.619,0,0,1,838.851-596.392Zm-.083,0a.515.515,0,0,0-.425-.6c-.062-.015-.127-.018-.19-.029s-.072,0-.071.061c0,.2,0,.4,0,.6,0,.044.01.064.059.07.143.018.285.04.427.063C838.764-596.2,838.764-596.2,838.768-596.395Z" transform="translate(2614.062 4371.151)" fill="#f7e905"/>
    <path id="패스_6292" data-name="패스 6292" d="M1216.945-616.987c0-.215,0-.431,0-.646a.1.1,0,0,1,.087-.114,1.235,1.235,0,0,1,.235-.044.613.613,0,0,1,.65.752.81.81,0,0,1-.9.792c-.061,0-.07-.024-.07-.077C1216.946-616.544,1216.945-616.765,1216.945-616.987Zm.074-.011c0,.2,0,.393,0,.589,0,.074.023.087.09.081a.744.744,0,0,0,.721-.926.482.482,0,0,0-.366-.446.771.771,0,0,0-.382.011.07.07,0,0,0-.062.083C1217.02-617.4,1217.019-617.2,1217.019-617Z" transform="translate(2242.116 4391.452)" fill="#f7e905"/>
    <path id="패스_6293" data-name="패스 6293" d="M998.707-597.642c0-.1,0-.2,0-.295,0-.029-.008-.062.034-.075a.9.9,0,0,1,.488-.053.3.3,0,0,1,.247.243.351.351,0,0,1-.088.373.622.622,0,0,1-.242.128,2.107,2.107,0,0,1-.345.052c-.068.008-.1-.008-.1-.087C998.713-597.452,998.707-597.547,998.707-597.642Zm.067,0c0,.083,0,.166,0,.249,0,.036.007.057.05.056a.8.8,0,0,0,.5-.15.287.287,0,0,0,.085-.325.252.252,0,0,0-.223-.191.782.782,0,0,0-.31.024c-.078.017-.116.049-.106.135A1.66,1.66,0,0,1,998.774-597.644Z" transform="translate(2456.327 4372.105)" fill="#f7e905"/>
    <path id="패스_6294" data-name="패스 6294" d="M679.626-617.744c0-.1,0-.2,0-.3,0-.053.019-.063.065-.053a1.2,1.2,0,0,1,.6.3.4.4,0,0,1,.1.457.224.224,0,0,1-.2.152.965.965,0,0,1-.546-.195c-.026-.014-.018-.043-.018-.067C679.625-617.547,679.626-617.646,679.626-617.744Z" transform="translate(2769.519 4391.75)" fill="#075b88"/>
    <path id="패스_6295" data-name="패스 6295" d="M842.9-591.8c0,.2,0,.2-.2.166-.142-.022-.285-.045-.427-.063-.049-.006-.059-.026-.059-.07,0-.2,0-.4,0-.6,0-.056.021-.069.071-.061s.128.014.19.029A.515.515,0,0,1,842.9-591.8Z" transform="translate(2609.926 4366.556)" fill="#075b88"/>
    <path id="패스_6296" data-name="패스 6296" d="M1220.968-613.141c0-.2,0-.405,0-.608a.07.07,0,0,1,.062-.083.771.771,0,0,1,.382-.011.482.482,0,0,1,.366.446.744.744,0,0,1-.721.926c-.067.006-.092-.007-.09-.081C1220.971-612.747,1220.968-612.944,1220.968-613.141Z" transform="translate(2238.167 4387.594)" fill="#075b88"/>
    <path id="패스_6297" data-name="패스 6297" d="M1002.267-594.034a1.673,1.673,0,0,0,0-.2c-.011-.086.027-.118.106-.135a.782.782,0,0,1,.31-.024.252.252,0,0,1,.223.191.287.287,0,0,1-.085.325.8.8,0,0,1-.5.15c-.043,0-.051-.019-.05-.056C1002.268-593.868,1002.266-593.951,1002.267-594.034Z" transform="translate(2452.834 4368.496)" fill="#075b88"/>
  </g>
</svg>
