<svg xmlns="http://www.w3.org/2000/svg" width="12.532" height="18" viewBox="0 0 12.532 18">
  <g id="그룹_6850" data-name="그룹 6850" transform="translate(-4248.113 -3860.117)">
    <path id="패스_6086" data-name="패스 6086" d="M66.337-585.852v-11.893c.02.021.031.044.073.026a18.008,18.008,0,0,1,4.969-1.326c.056-.006.167.009.1-.115h2.185c-.016.156.117.109.181.115a17.782,17.782,0,0,1,3.578.8c.487.153.946.385,1.446.5v12.021c-.157-.071-.111.07-.123.128a3.225,3.225,0,0,1-1.924,2.388c-1.325.607-2.637,1.24-3.951,1.871-.063.03-.234.007-.171.177h-.193c.046-.186-.131-.151-.207-.188-1.293-.625-2.584-1.257-3.889-1.856a3.229,3.229,0,0,1-1.954-2.509C66.445-585.77,66.491-585.9,66.337-585.852Zm4.169-10.732c0,.007-.009.015-.008.021a.273.273,0,0,0,.013.041c0,.057-.085.122.015.17-.044-.126-.119-.111-.2-.044-.166.138-.166.138.152.261a.05.05,0,0,0-.01.048l-.019.062c-.221-.155-.271-.071-.277.168a2.288,2.288,0,0,0,.954,1.989c.083.063.162.144.284.113-.009.148.105.128.194.143l.261.1a.291.291,0,0,0,.265.061,2.3,2.3,0,0,0,2.667-2.108,1.987,1.987,0,0,0-.236-1.218c-.052-.072-.054-.193-.185-.186L74.312-597c.117-.108.078-.156-.063-.163-.011-.035.008-.1-.067-.073l.006,0c.023-.139-.11-.162-.175-.236l-.089-.018c-.061-.1-.117-.2-.26-.186a.187.187,0,0,0-.142-.121l-.094-.049a2.052,2.052,0,0,0-.721-.2c-.216.009-.463-.153-.633.114l-.037.056-.1.058c0-.167-.111-.158-.217-.117a1.521,1.521,0,0,0-.568.309.343.343,0,0,0-.107.212c-.279-.031-.342.215-.475.371-.076.048,0,.139-.053.193,0,.007-.013.014-.013.02a.218.218,0,0,0,.011.041c-.094-.028-.141.021-.141.106s.037.141.137.1Zm2.77,13.874,1.384-.671c.1-.049.081-.139.081-.222q0-2.762,0-5.524c0-.152-.043-.208-.2-.2a8.964,8.964,0,0,1-.963,0c-.259-.02-.313.07-.311.316.01,1.991.006,3.983.006,5.974Zm-1.463,0c0-2.188,0-4.317,0-6.447,0-.154-.066-.172-.192-.17-.342.006-.685.012-1.027,0-.183-.008-.23.051-.23.231.006,1.83,0,3.661,0,5.491,0,.11,0,.205.125.263C70.92-583.148,71.339-582.941,71.813-582.713Zm-2.93-1.393c0-1.7,0-3.35,0-5,0-.187-.061-.236-.238-.23-.342.012-.684.01-1.026,0-.146,0-.205.028-.2.191.011,1.048.009,2.1.016,3.143A2.076,2.076,0,0,0,68.883-584.106Zm7.278,0a2.078,2.078,0,0,0,1.437-1.938c-.007-1.028.011-2.055.024-3.083,0-.153-.045-.206-.2-.2-.353.01-.707.009-1.06,0-.146,0-.2.028-.2.191C76.163-587.48,76.161-585.82,76.161-584.109Zm1.679-8.258c-.693-.272-.959.239-1.287.663a1.6,1.6,0,0,1-.025-.484c.038-.272-.142-.233-.3-.226-.142.007-.325-.077-.316.208.018.577.015,1.154,0,1.731-.006.238.144.2.272.184s.351.119.34-.178c-.006-.186,0-.373,0-.659.385.515.647,1.089,1.384.789-.243-.3-.484-.6-.742-.895a.214.214,0,0,1,.007-.344C77.4-591.83,77.614-592.1,77.84-592.366ZM69.877-590.3c.175,0,.292,0,.409,0s.255.025.283-.133c.044-.256.224-.236.41-.233s.418-.053.464.244c.015.1.093.127.192.123.155-.006.31,0,.5,0-.26-.689-.508-1.336-.745-1.987-.057-.156-.17-.151-.281-.131-.154.027-.365-.115-.455.111C70.391-591.651,70.144-590.993,69.877-590.3Zm4.054-2.187c-.1.016-.188.022-.27.043a.7.7,0,0,0-.562.688c0,.351.216.51.531.578a2.015,2.015,0,0,1,.274.087c.081.03.168.065.156.174s-.115.149-.211.157a.8.8,0,0,1-.449-.142c-.235-.127-.207.132-.288.22-.06.066-.164.171,0,.252a1.371,1.371,0,0,0,1.291.043.658.658,0,0,0,.341-.673.56.56,0,0,0-.423-.507c-.109-.041-.228-.056-.337-.1-.083-.032-.214-.048-.194-.175s.151-.132.256-.123a.5.5,0,0,1,.211.064c.105.065.157.042.224-.06.218-.331.206-.371-.192-.464C74.17-592.45,74.042-592.466,73.931-592.485Zm-6.525,1.125c0,.278.01.556,0,.833-.009.188.062.238.24.232.341-.012.684-.014,1.025,0,.19.008.221-.067.234-.24.02-.267-.066-.372-.333-.331-.094.014-.193-.008-.288,0-.177.022-.217-.058-.211-.22.011-.3,0-.6,0-.9,0-.466,0-.455-.466-.446-.183,0-.208.079-.2.231C67.412-591.916,67.406-591.638,67.406-591.36Z" transform="translate(4181.776 4459.276)" fill="#fcfcfc"/>
    <path id="패스_6091" data-name="패스 6091" d="M174.124-439.837v-.334c0-1.991,0-3.983-.006-5.974,0-.247.053-.336.311-.316a8.94,8.94,0,0,0,.963,0c.156,0,.2.051.2.2q-.006,2.762,0,5.524c0,.083.02.174-.081.222Z" transform="translate(4080.928 4316.403)" fill="#040404"/>
    <path id="패스_6092" data-name="패스 6092" d="M130.44-439.776c-.474-.229-.894-.436-1.317-.633-.125-.058-.126-.153-.125-.263,0-1.83,0-3.661,0-5.491,0-.18.046-.239.23-.231.342.014.685.008,1.027,0,.126,0,.192.015.192.17C130.438-444.093,130.44-441.964,130.44-439.776Z" transform="translate(4123.149 4316.339)"/>
    <path id="패스_6093" data-name="패스 6093" d="M84.624-441.173a2.076,2.076,0,0,1-1.448-1.891c-.007-1.048,0-2.1-.016-3.143,0-.163.058-.195.2-.191.342.009.684.012,1.026,0,.178-.007.239.042.238.23C84.621-444.523,84.624-442.877,84.624-441.173Z" transform="translate(4166.035 4316.344)" fill="#060606"/>
    <path id="패스_6094" data-name="패스 6094" d="M219-441.161c0-1.712,0-3.371,0-5.031,0-.163.058-.194.2-.191.353.009.707.01,1.06,0,.156,0,.2.048.2.2-.013,1.028-.031,2.056-.024,3.083A2.078,2.078,0,0,1,219-441.161Z" transform="translate(4038.94 4316.328)" fill="#040404"/>
    <path id="패스_6095" data-name="패스 6095" d="M130.471-551.1a2.3,2.3,0,0,1-2.667,2.108c-.056-.194.1-.24.236-.312-.186-.087-.375.051-.546-.046-.039-.022-.074.033-.076.078,0,.089.06.1.127.1h0l-.006.116-.261-.1c0-.072.026-.174-.011-.209-.064-.062-.113.06-.183.066-.122.031-.2-.05-.284-.113a2.288,2.288,0,0,1-.954-1.989c.006-.238.056-.323.277-.168l.125.011a.327.327,0,0,0,.061,0,.182.182,0,0,0-.107.275,2.543,2.543,0,0,1,.187.536,1.812,1.812,0,0,0,1.377,1.254,4.157,4.157,0,0,0,.877.052l-.01,0c-.033.06.019.053.05.063a.235.235,0,0,0,.062.009c.019.019.051.058.056.055.048-.031.027-.08.023-.124h.072c0,.065.016.111.1.085h0l.116,0h.028c.126-.009.1-.079.053-.146-.075-.1-.122-.008-.173.036a.247.247,0,0,1,.139-.271,1.621,1.621,0,0,0,.742-.91l.071-.24c.082-.149-.087-.378.151-.477.056.143.168.04.253.059Z" transform="translate(4126.095 4414.813)" fill="#090909"/>
    <path id="패스_6096" data-name="패스 6096" d="M217.1-494.678c-.226.269-.438.537-.668.788a.214.214,0,0,0-.007.344c.258.292.5.6.742.895-.737.3-1-.274-1.384-.789,0,.287-.005.473,0,.659.01.3-.212.161-.34.178s-.277.055-.272-.184c.014-.577.017-1.155,0-1.731-.009-.284.175-.2.316-.208.157-.007.337-.046.3.226a1.6,1.6,0,0,0,.025.484C216.142-494.439,216.407-494.95,217.1-494.678Z" transform="translate(4042.515 4361.588)" fill="#060606"/>
    <path id="패스_6097" data-name="패스 6097" d="M121.372-492.494c.267-.7.513-1.354.773-2.007.09-.225.3-.084.455-.111.111-.02.225-.025.281.131.237.651.485,1.3.745,1.987-.187,0-.342,0-.5,0-.1,0-.176-.023-.192-.123-.046-.3-.266-.24-.464-.244s-.366-.023-.41.233c-.027.158-.166.134-.283.133S121.547-492.494,121.372-492.494Zm1.112-1.31-.15.463c.12.011.277.069.3-.025A.568.568,0,0,0,122.484-493.8Z" transform="translate(4130.281 4361.473)" fill="#060606"/>
    <path id="패스_6098" data-name="패스 6098" d="M171.206-495.412c.111.019.238.035.362.063.4.093.41.133.192.464-.067.1-.119.125-.224.06a.5.5,0,0,0-.211-.064c-.105-.009-.235-.016-.256.123s.111.142.194.175c.109.042.228.057.337.1a.56.56,0,0,1,.423.507.658.658,0,0,1-.341.673,1.371,1.371,0,0,1-1.291-.043c-.168-.081-.065-.186,0-.252.081-.088.053-.346.288-.22a.8.8,0,0,0,.449.142c.1-.009.2-.036.211-.157s-.075-.144-.156-.174a2.011,2.011,0,0,0-.274-.087c-.315-.068-.529-.227-.531-.578a.7.7,0,0,1,.562-.688C171.018-495.39,171.1-495.4,171.206-495.412Z" transform="translate(4084.501 4362.203)" fill="#090909"/>
    <path id="패스_6099" data-name="패스 6099" d="M82.887-493.447c0-.278.006-.556,0-.834,0-.152.02-.227.2-.231.466-.01.466-.021.466.446,0,.3.008.6,0,.9-.006.161.034.242.211.22.095-.012.194.01.288,0,.267-.041.353.064.333.331-.013.173-.044.248-.234.24-.341-.014-.684-.013-1.025,0-.178.006-.249-.044-.24-.231C82.9-492.89,82.887-493.169,82.887-493.447Z" transform="translate(4166.295 4361.362)" fill="#fe0712"/>
    <path id="패스_6100" data-name="패스 6100" d="M185.939-564.345l-.1-.2c-.011-.072-.073-.064-.121-.078,0-.092,0-.181-.129-.175l-.073-.062v-.12c-.026-.089.1-.227-.087-.263a.068.068,0,0,1-.09-.05c.068-.01.121-.052.1-.117-.032-.1-.118-.007-.176-.03l-.135-.23.05-.092c.106.106.183-.083.284-.028l.056.039.055.358c.109-.02.052-.144.13-.172A1.987,1.987,0,0,1,185.939-564.345Z" transform="translate(4070.626 4428.06)" fill="#272727"/>
    <path id="패스_6101" data-name="패스 6101" d="M154.952-581.826a2.051,2.051,0,0,1,.721.2.091.091,0,0,1-.02.033c-.124.075-.089.214-.13.322a6.444,6.444,0,0,0-1.286-.135.115.115,0,0,0,.008-.044.2.2,0,0,0,.11-.2c.105-.014.227-.04.3.037.058.058.034.2.187.1A.226.226,0,0,0,154.952-581.826Z" transform="translate(4099.53 4443.058)" fill="#090909"/>
    <path id="패스_6102" data-name="패스 6102" d="M141.192-580.152a1.522,1.522,0,0,1,.568-.309c.106-.041.214-.05.217.117l-.017.135-.138.013c-.075.047-.061.083.013.112l.065.056-.179.066c-.025-.067.032-.181-.1-.186a.309.309,0,0,0-.087.023l.128.18-.193.129C141.272-579.844,141.23-580,141.192-580.152Z" transform="translate(4111.736 4441.804)" fill="#272727"/>
    <path id="패스_6103" data-name="패스 6103" d="M132.138-571.668c.133-.156.2-.4.475-.371.049.1-.105.3.137.316-.058.081-.11.17-.218.2l-.062-.005-.2-.017C132.265-571.631,132.215-571.664,132.138-571.668Z" transform="translate(4120.208 4433.903)" fill="#151515"/>
    <path id="패스_6104" data-name="패스 6104" d="M156.148-582.415a.226.226,0,0,1-.107.31c-.153.1-.129-.041-.187-.1-.077-.077-.2-.051-.3-.037l.008,0-.044-.061C155.685-582.568,155.932-582.406,156.148-582.415Z" transform="translate(4098.334 4443.647)" fill="#515151"/>
    <path id="패스_6105" data-name="패스 6105" d="M150.392-515.915c-.067,0-.132-.014-.127-.1,0-.045.038-.1.076-.078.171.1.361-.042.546.046-.141.072-.292.119-.236.312a.292.292,0,0,1-.265-.061l.006-.116.087-.025-.017-.025Z" transform="translate(4103.248 4381.56)" fill="#272727"/>
    <path id="패스_6106" data-name="패스 6106" d="M139.6-574.762c-.242-.02-.087-.212-.137-.316a.343.343,0,0,1,.107-.212c.038.156.08.308.274.337Z" transform="translate(4113.356 4436.942)" fill="#515151"/>
    <path id="패스_6107" data-name="패스 6107" d="M184.464-569.08c-.1-.055-.178.134-.284.028,0-.1-.082-.037-.119-.063l.007.011.063-.171.208-.039-.006,0c0,.047.012.078.067.073C184.543-569.236,184.581-569.188,184.464-569.08Z" transform="translate(4071.624 4431.354)" fill="#a2a2a2"/>
    <path id="패스_6108" data-name="패스 6108" d="M130.732-558.964c-.1-.048-.014-.113-.015-.17.052.013.1.009.121-.049l.141-.019c.04.136-.041.242-.087.357Z" transform="translate(4121.569 4421.888)" fill="#515151"/>
    <path id="패스_6109" data-name="패스 6109" d="M177.828-577.981a.186.186,0,0,1,.142.121c.041.08.147.144.064.255l-.2-.02c-.012-.038-.037-.077.009-.111Zm.111.289.01-.015-.016,0Z" transform="translate(4077.469 4439.46)" fill="#a2a2a2"/>
    <path id="패스_6110" data-name="패스 6110" d="M128.465-556.9l.16.12-.055.224a.327.327,0,0,1-.061,0c-.013-.057-.056-.07-.106-.073a.05.05,0,0,1,.01-.048c.04,0,.086.006.1-.047.017-.069-.021-.093-.083-.088-.095.007-.162-.017-.168-.126C128.346-557.007,128.42-557.023,128.465-556.9Z" transform="translate(4123.836 4419.821)" fill="#151515"/>
    <path id="패스_6111" data-name="패스 6111" d="M130.973-562.975l-.141.019-.125-.014.005,0c-.019-.07-.071-.14,0-.208a.218.218,0,0,1-.011-.041c0-.006.008-.013.013-.02l.2.075,0-.007.064.126Z" transform="translate(4121.575 4425.662)" fill="#a2a2a2"/>
    <path id="패스_6112" data-name="패스 6112" d="M126.663-556.2c.006.109.073.134.168.126.061,0,.1.019.083.088-.013.053-.059.046-.1.047C126.5-556.059,126.5-556.059,126.663-556.2Z" transform="translate(4125.433 4419.078)" fill="#a2a2a2"/>
    <path id="패스_6113" data-name="패스 6113" d="M191.378-564.854c-.079.028-.021.152-.13.172l-.055-.358C191.324-565.047,191.326-564.926,191.378-564.854Z" transform="translate(4064.952 4427.352)" fill="#383838"/>
    <path id="패스_6114" data-name="패스 6114" d="M131.505-565.965l-.2-.075c.057-.054-.023-.145.053-.193.077,0,.127.036.133.119Z" transform="translate(4120.982 4428.468)" fill="#020202"/>
    <path id="패스_6115" data-name="패스 6115" d="M185.313-572.7l-.208.039.007-.013-.01-.206.036-.055C185.2-572.86,185.336-572.837,185.313-572.7Z" transform="translate(4070.651 4434.738)" fill="#272727"/>
    <path id="패스_6116" data-name="패스 6116" d="M145.084-516.351c.07-.007.118-.128.183-.066.037.036.01.137.011.209C145.189-516.223,145.075-516.2,145.084-516.351Z" transform="translate(4108.095 4381.873)" fill="#272727"/>
    <path id="패스_6117" data-name="패스 6117" d="M180.3-575.876c.083-.111-.022-.175-.064-.255.144-.017.2.088.26.186l0,0-.2.065Z" transform="translate(4075.208 4437.731)" fill="#090909"/>
    <path id="패스_6118" data-name="패스 6118" d="M153.13-578.978l.017-.135.1-.058.081,0-.008,0a.2.2,0,0,1-.11.2Z" transform="translate(4100.566 4440.574)" fill="#a2a2a2"/>
    <path id="패스_6119" data-name="패스 6119" d="M176.364-578.7l.013.245-.1.037a.252.252,0,0,0-.022-.3.091.091,0,0,0,.02-.033Z" transform="translate(4078.933 4440.175)" fill="#090909"/>
    <path id="패스_6120" data-name="패스 6120" d="M129.241-562.4c-.075.068-.023.138,0,.208-.1.038-.137-.02-.137-.1S129.146-562.431,129.241-562.4Z" transform="translate(4123.05 4424.892)" fill="#151515"/>
    <path id="패스_6121" data-name="패스 6121" d="M131.018-559.13l.125.014c-.024.057-.069.062-.121.049a.273.273,0,0,1-.013-.041C131.008-559.115,131.015-559.123,131.018-559.13Z" transform="translate(4121.264 4421.822)" fill="#151515"/>
    <path id="패스_6122" data-name="패스 6122" d="M130.185-551.384c.05,0,.093.016.106.073l-.125-.011Z" transform="translate(4122.053 4414.574)" fill="#a2a2a2"/>
    <path id="패스_6123" data-name="패스 6123" d="M188.356-569.318c-.055,0-.069-.026-.067-.073C188.364-569.414,188.345-569.352,188.356-569.318Z" transform="translate(4067.669 4431.428)" fill="#272727"/>
    <path id="패스_6124" data-name="패스 6124" d="M184.178-573.231l.089.018-.036.055c-.035-.012-.073-.022-.055-.074Z" transform="translate(4071.522 4435.018)" fill="#272727"/>
    <path id="패스_6125" data-name="패스 6125" d="M155.022-579.988l-.081,0,.037-.056Z" transform="translate(4098.872 4441.396)" fill="#090909"/>
    <path id="패스_6126" data-name="패스 6126" d="M131.212-574.292v-.065l.123-.012c.01.059-.009.129.054.167.011.007.06-.02.067-.039a.144.144,0,0,0-.066-.187l.01-.106.006-.068c.108-.026.159-.115.218-.2l.244-.191.193-.129.061-.017.179-.066c.1.015.078-.095.132-.127a6.444,6.444,0,0,1,1.286.135c0,.091.084.091.137.124.1.056.169.181.313.131v.068c.047.069.065.178.191.141l-.007-.011c-.07.093.032.11.069.155l.135.23.074.146a.068.068,0,0,0,.09.05l.007.015c-.071.02-.046.064-.025.106l-.01.107c-.012.09.019.147.116.156l.073.062-.009.2.006,0c-.238.1-.069.328-.151.477-.065-.007-.158-.072-.186.017a.18.18,0,0,0,.115.223,1.621,1.621,0,0,1-.742.91.247.247,0,0,0-.139.271l.008-.005a.072.072,0,0,0-.095.028l-.017-.007-.012.014h-.072l-.016-.017-.021.011c-.052-.073-.1-.1-.144.007a4.157,4.157,0,0,1-.877-.052,1.812,1.812,0,0,1-1.377-1.254,2.541,2.541,0,0,0-.187-.536.182.182,0,0,1,.107-.275l.055-.224C131.171-574.05,131.252-574.156,131.212-574.292Zm.666.417a.054.054,0,0,1,.038.025c0,.058,0,.11.065.136l.094.226c-.2-.093-.237-.025-.154.157a1.525,1.525,0,0,1,.193.53c.008.124.111.1.189.117a.926.926,0,0,0,.094.547.164.164,0,0,0,.214.082c.121-.049.071-.137.016-.205-.143-.178-.138-.418-.258-.605a.393.393,0,0,1,.316-.077c.069.041.1.145.2.127.08.022.158.05.239.064.151.026.069-.071.063-.128.015-.037.032-.108.044-.107.432.025.81-.272,1.247-.206.008.027.02.056.052.034.008-.006-.008-.046-.012-.07l-.16-.369.005-.014-.011-.011a.345.345,0,0,1-.072-.25l.008-.155-.058-.078q0-.029,0-.058c.042-.217-.05-.3-.26-.25a2.012,2.012,0,0,1-1.183-.007.265.265,0,0,0-.286.084l-.137-.036c-.091-.048-.044.118-.127.083a.074.074,0,0,0-.051-.02c-.011-.1-.049-.148-.152-.094a.343.343,0,0,0-.247.107l-.1.064c-.07-.069-.095-.027-.107.044-.042.086.02.124.074.166.018.086.073.072.131.049l.059.067c-.038.009-.077.017-.115.029a.387.387,0,0,0,.01.052Zm1.829,1.065c-.2.014-.313-.054-.41.048-.036.038.008.085.043.1C133.465-572.591,133.554-572.65,133.708-572.809Zm.677-.161c0-.007-.007-.018-.012-.02s-.017,0-.026,0l.017.032Z" transform="translate(4121.335 4436.979)" fill="#fcfcfc"/>
    <path id="패스_6127" data-name="패스 6127" d="M187-539.985a.18.18,0,0,1-.115-.223c.027-.089.121-.025.186-.017Z" transform="translate(4068.987 4404.162)" fill="#ececec"/>
    <path id="패스_6128" data-name="패스 6128" d="M174.775-518.875l-.008.005c.052-.044.1-.133.173-.036.051.067.073.137-.053.146l-.007-.051-.021.052-.116,0Z" transform="translate(4080.343 4384.226)" fill="#a2a2a2"/>
    <path id="패스_6129" data-name="패스 6129" d="M192.287-547.51c.048.014.11.006.121.078-.084-.019-.2.084-.253-.059l-.006,0Z" transform="translate(4064.057 4410.95)" fill="#ececec"/>
    <path id="패스_6130" data-name="패스 6130" d="M169.208-518.312c.043-.11.092-.081.144-.007l-.042.075a.238.238,0,0,1-.062-.009l-.05-.063Z" transform="translate(4085.532 4383.698)" fill="#151515"/>
    <path id="패스_6131" data-name="패스 6131" d="M170.938-517.448l.042-.075.021-.011.016.017c0,.044.026.093-.023.124C170.989-517.389,170.957-517.428,170.938-517.448Z" transform="translate(4083.904 4382.902)" fill="#a2a2a2"/>
    <path id="패스_6132" data-name="패스 6132" d="M169.045-517.316l.05.063C169.064-517.263,169.013-517.256,169.045-517.316Z" transform="translate(4085.685 4382.698)" fill="#fcfcfc"/>
    <path id="패스_6133" data-name="패스 6133" d="M173.284-517.461l.012-.014.017.007.066.092C173.3-517.35,173.283-517.4,173.284-517.461Z" transform="translate(4081.709 4382.847)" fill="#a2a2a2"/>
    <path id="패스_6134" data-name="패스 6134" d="M173.812-517.784l-.066-.092a.072.072,0,0,1,.095-.028l-.031.12Z" transform="translate(4081.276 4383.254)" fill="#515151"/>
    <path id="패스_6135" data-name="패스 6135" d="M176.54-516.737l.021-.052.007.051Z" transform="translate(4078.662 4382.205)" fill="#515151"/>
    <path id="패스_6136" data-name="패스 6136" d="M136.487-481.77a.568.568,0,0,1,.154.438c-.027.094-.183.036-.3.025Z" transform="translate(4116.279 4349.438)" fill="#ececec"/>
    <path id="패스_6137" data-name="패스 6137" d="M189.392-557.122l-.007-.015c.184.036.061.174.087.263l-.115-.036.01-.106Z" transform="translate(4066.67 4419.957)" fill="#383838"/>
    <path id="패스_6138" data-name="패스 6138" d="M192.287-550.057l-.138.023.009-.2C192.288-550.238,192.289-550.149,192.287-550.057Z" transform="translate(4064.057 4413.497)" fill="#515151"/>
    <path id="패스_6139" data-name="패스 6139" d="M187.3-560.307l-.074-.146c.058.022.144-.071.176.03C187.422-560.359,187.368-560.317,187.3-560.307Z" transform="translate(4068.664 4423.077)" fill="#383838"/>
    <path id="패스_6140" data-name="패스 6140" d="M189.32-553.612l.115.036v.12C189.339-553.465,189.308-553.522,189.32-553.612Z" transform="translate(4066.706 4416.659)" fill="#f8f8f8"/>
    <path id="패스_6141" data-name="패스 6141" d="M183.781-566.028c-.037-.046-.139-.062-.069-.155.037.026.121-.037.119.063Z" transform="translate(4071.974 4428.421)" fill="#020202"/>
    <path id="패스_6142" data-name="패스 6142" d="M174.359-577.786c-.053-.033-.136-.033-.137-.124.041-.108.007-.247.13-.322a.252.252,0,0,1,.022.3c-.03.033-.054.067-.021.112A.029.029,0,0,1,174.359-577.786Z" transform="translate(4080.831 4439.695)" fill="#a2a2a2"/>
    <path id="패스_6143" data-name="패스 6143" d="M151.19-576.114c-.054.032-.032.143-.132.127l-.065-.056-.013-.112.138-.013.079.01A.115.115,0,0,1,151.19-576.114Z" transform="translate(4102.578 4437.764)" fill="#515151"/>
    <path id="패스_6144" data-name="패스 6144" d="M146.649-575.037l-.061.017-.128-.18a.309.309,0,0,1,.087-.023C146.681-575.218,146.624-575.1,146.649-575.037Z" transform="translate(4106.807 4436.88)" fill="#a2a2a2"/>
    <path id="패스_6145" data-name="패스 6145" d="M150.253-575.966l.013.112C150.192-575.883,150.178-575.919,150.253-575.966Z" transform="translate(4103.305 4437.575)" fill="#ececec"/>
    <path id="패스_6146" data-name="패스 6146" d="M134.46-564.3l-.01.106-.072.011c-.064,0-.076-.135-.168-.066l0,.007-.009-.149.2.017Z" transform="translate(4118.274 4426.74)" fill="#a2a2a2"/>
    <path id="패스_6147" data-name="패스 6147" d="M137.362-564.048l-.055-.074.062.005Z" transform="translate(4115.371 4426.493)" fill="#f8f8f8"/>
    <path id="패스_6148" data-name="패스 6148" d="M152.244-513.936l.071-.049.017.025-.087.025Z" transform="translate(4101.395 4379.581)" fill="#090909"/>
    <path id="패스_6149" data-name="패스 6149" d="M181.39-569.008c-.126.037-.144-.072-.191-.141.063-.027.168.071.2-.065l0,0,.069.019-.007.013Z" transform="translate(4074.303 4431.257)" fill="#151515"/>
    <path id="패스_6150" data-name="패스 6150" d="M176.273-572.371a.029.029,0,0,0-.006-.036l.117-.038.2.02,0-.006,0,.191C176.442-572.19,176.372-572.315,176.273-572.371Z" transform="translate(4078.917 4434.28)" fill="#151515"/>
    <path id="패스_6151" data-name="패스 6151" d="M176.158-574.058l-.117.038c-.033-.045-.008-.079.021-.112l.1-.037C176.122-574.135,176.146-574.1,176.158-574.058Z" transform="translate(4079.143 4435.894)" fill="#fcfcfc"/>
    <path id="패스_6152" data-name="패스 6152" d="M179.652-573.737l-.006-.017.016,0Z" transform="translate(4075.756 4435.505)" fill="#090909"/>
    <path id="패스_6153" data-name="패스 6153" d="M134.272-562.473c.092-.07.1.064.168.066a.223.223,0,0,1,.018.048l-.123.012Z" transform="translate(4118.211 4424.969)" fill="#383838"/>
    <path id="패스_6154" data-name="패스 6154" d="M181.185-572.977l0-.191.2-.065c-.018.052.02.062.055.074l.01.206-.069-.019c-.023-.038.024-.111-.055-.117a.076.076,0,0,0-.055.051c0,.079.074.041.113.062-.027.136-.132.037-.2.065Z" transform="translate(4074.318 4435.018)" fill="#a2a2a2"/>
    <path id="패스_6155" data-name="패스 6155" d="M163.761-552.787c-.437-.066-.815.231-1.247.206-.013,0-.029.07-.044.107a.156.156,0,0,0-.059,0,1.377,1.377,0,0,0-.185-.9l0-.07.127.015a1.313,1.313,0,0,0,.692-.046.72.72,0,0,1,.521.007.345.345,0,0,0,.072.25c-.424-.16-.8.142-1.279.106.128.082.093.18.147.228a1.672,1.672,0,0,0,1.138-.31l.16.369A.381.381,0,0,0,163.761-552.787Z" transform="translate(4092.058 4416.574)" fill="#151515"/>
    <path id="패스_6156" data-name="패스 6156" d="M149.734-551.28a.392.392,0,0,0-.316.077.051.051,0,0,0-.041-.009c-.142-.187-.121-.432-.224-.633.01-.107.02-.215.029-.322l.071-.011.349.011A2.223,2.223,0,0,1,149.734-551.28Z" transform="translate(4104.287 4415.317)" fill="#e80109"/>
    <path id="패스_6157" data-name="패스 6157" d="M156.263-552.442a2.223,2.223,0,0,0-.133-.887l.011-.076.188-.015a.106.106,0,0,0,.1.08.084.084,0,0,0,.1.062,1.377,1.377,0,0,1,.185.9c-.062.095-.214-.16-.244.063C156.361-552.3,156.332-552.4,156.263-552.442Z" transform="translate(4097.759 4416.479)" fill="#f8f8f8"/>
    <path id="패스_6158" data-name="패스 6158" d="M155.322-561.326a.265.265,0,0,1,.286-.084,2.012,2.012,0,0,0,1.183.007c.21-.049.3.033.26.25a11.276,11.276,0,0,0-1.289.124l-.112-.135c-.037-.05-.037-.193-.147-.058-.039.047-.072-.009-.109-.007l-.073-.069Z" transform="translate(4098.516 4423.969)" fill="#151515"/>
    <path id="패스_6159" data-name="패스 6159" d="M162.175-557.1a11.276,11.276,0,0,1,1.289-.124q0,.029,0,.058l.058.078-.008.155a.721.721,0,0,0-.521-.007,1.313,1.313,0,0,1-.692.046c0-.077-.026-.13-.112-.134Z" transform="translate(4092.103 4420.035)" fill="#f8f8f8"/>
    <path id="패스_6160" data-name="패스 6160" d="M165.584-549.451a1.672,1.672,0,0,1-1.138.31c-.054-.048-.019-.146-.147-.228.48.036.854-.266,1.279-.106l.011.011Z" transform="translate(4090.116 4412.833)" fill="#ececec"/>
    <path id="패스_6161" data-name="패스 6161" d="M151.534-537.19a.051.051,0,0,1,.041.009c.12.187.114.427.258.605.055.068.1.156-.016.205a.164.164,0,0,1-.214-.082.926.926,0,0,1-.094-.547C151.5-537.065,151.387-537.144,151.534-537.19Z" transform="translate(4102.13 4401.294)" fill="#f8f8f8"/>
    <path id="패스_6162" data-name="패스 6162" d="M146.116-546.682c-.148.046-.035.125-.025.191-.077-.016-.181.007-.189-.117a1.525,1.525,0,0,0-.193-.53c-.083-.181-.045-.249.154-.157a.077.077,0,0,0,.03-.02C146-547.114,145.975-546.869,146.116-546.682Z" transform="translate(4107.548 4410.787)" fill="#a2a2a2"/>
    <path id="패스_6163" data-name="패스 6163" d="M149.81-560.415v.029c-.124.063.015.093.018.14-.108-.015-.175.014-.151.141l-.109.049-.08-.056-.021-.094-.035-.162.065-.019a.074.074,0,0,1,.051.02c.014.053-.015.161.048.148.112-.023.086-.14.078-.231Z" transform="translate(4104.028 4423.058)" fill="#515151"/>
    <path id="패스_6164" data-name="패스 6164" d="M167.922-536.288c-.154.158-.243.217-.367.151-.034-.018-.079-.065-.043-.1C167.609-536.342,167.725-536.275,167.922-536.288Z" transform="translate(4087.122 4400.458)" fill="#ececec"/>
    <path id="패스_6165" data-name="패스 6165" d="M146.9-552.973a.078.078,0,0,1-.03.02l-.094-.226-.031-.159.047-.045.138.088Z" transform="translate(4106.54 4416.445)" fill="#515151"/>
    <path id="패스_6166" data-name="패스 6166" d="M161.361-537.615c.03-.222.182.032.244-.063a.156.156,0,0,1,.059,0c.006.056.088.154-.063.128C161.519-537.565,161.441-537.593,161.361-537.615Z" transform="translate(4092.865 4401.779)" fill="#383838"/>
    <path id="패스_6167" data-name="패스 6167" d="M144.117-557.075l-.059-.067c.009-.066-.045-.135.006-.2v.007l.174.152.025.1-.047.045a.051.051,0,0,1-.032-.032l0,0Z" transform="translate(4109.07 4420.149)" fill="#515151"/>
    <path id="패스_6168" data-name="패스 6168" d="M141.308-558.725c-.05.065,0,.134-.006.2-.058.023-.113.036-.131-.049a.127.127,0,0,0-.074-.166c.012-.071.037-.113.107-.044C141.2-558.7,141.244-558.694,141.308-558.725Z" transform="translate(4111.825 4421.533)" fill="#a2a2a2"/>
    <path id="패스_6169" data-name="패스 6169" d="M136.905-561.274a.225.225,0,0,0-.018-.048l.072-.011a.144.144,0,0,1,.066.187c-.007.02-.055.046-.067.039C136.9-561.145,136.915-561.215,136.905-561.274Z" transform="translate(4115.764 4423.884)" fill="#f8f8f8"/>
    <path id="패스_6170" data-name="패스 6170" d="M144.239-560.821a.343.343,0,0,1,.247-.107c0,.031,0,.061,0,.092l-.239.094Z" transform="translate(4108.885 4423.504)" fill="#515151"/>
    <path id="패스_6171" data-name="패스 6171" d="M151.362-560.577c.007.09.034.207-.078.231-.063.013-.034-.095-.048-.148C151.318-560.46,151.27-560.625,151.362-560.577Z" transform="translate(4102.339 4423.185)" fill="#a2a2a2"/>
    <path id="패스_6172" data-name="패스 6172" d="M148.071-561.155v-.092c.1-.054.141,0,.152.094l-.065.019Z" transform="translate(4105.3 4423.823)" fill="#a2a2a2"/>
    <path id="패스_6173" data-name="패스 6173" d="M146.029-553.188a.051.051,0,0,0,.032.032l.031.159c-.063-.026-.069-.078-.065-.136,0-.006-.015-.013-.014-.019A.177.177,0,0,1,146.029-553.188Z" transform="translate(4107.225 4416.262)" fill="#a2a2a2"/>
    <path id="패스_6174" data-name="패스 6174" d="M143.563-553.161l-.133.05a.389.389,0,0,1-.01-.052c.038-.012.076-.02.115-.029l.068,0A.035.035,0,0,1,143.563-553.161Z" transform="translate(4109.651 4416.266)" fill="#a2a2a2"/>
    <path id="패스_6175" data-name="패스 6175" d="M140.893-557.585a.127.127,0,0,1,.074.166C140.913-557.461,140.851-557.5,140.893-557.585Z" transform="translate(4112.029 4420.376)" fill="#515151"/>
    <path id="패스_6176" data-name="패스 6176" d="M184.041-538.958l-.021.014-.017-.032c.009,0,.019-.005.026,0S184.037-538.965,184.041-538.958Z" transform="translate(4071.679 4402.967)" fill="#ececec"/>
    <path id="패스_6177" data-name="패스 6177" d="M142.851-559.266l.008.079a.092.092,0,0,0,0,.051v-.007c-.064.031-.107.025-.1-.06Z" transform="translate(4110.273 4421.949)" fill="#272727"/>
    <path id="패스_6178" data-name="패스 6178" d="M189.221-556.909l-.025.106C189.175-556.845,189.149-556.889,189.221-556.909Z" transform="translate(4066.841 4419.744)" fill="#272727"/>
    <path id="패스_6179" data-name="패스 6179" d="M182.337-556.23l-.058-.078Z" transform="translate(4073.292 4419.182)" fill="#ececec"/>
    <path id="패스_6180" data-name="패스 6180" d="M186.175-542.677c0,.024.021.064.012.07-.032.022-.044-.006-.052-.034A.387.387,0,0,1,186.175-542.677Z" transform="translate(4069.683 4406.427)" fill="#151515"/>
    <path id="패스_6181" data-name="패스 6181" d="M145.641-553.158a.035.035,0,0,0,.041-.027v0a.177.177,0,0,0-.015.036c0,.005.009.012.014.019A.054.054,0,0,0,145.641-553.158Z" transform="translate(4107.573 4416.262)" fill="#090909"/>
    <path id="패스_6182" data-name="패스 6182" d="M182.585-570.857c-.039-.02-.112.018-.113-.062a.076.076,0,0,1,.055-.051c.079.006.032.079.055.117Z" transform="translate(4073.112 4432.901)" fill="#090909"/>
    <path id="패스_6183" data-name="패스 6183" d="M159.421-554.155c.086,0,.113.057.112.134l-.127-.015c-.038-.07-.066-.013-.1.008a.106.106,0,0,1-.1-.08C159.27-554.173,159.352-554.136,159.421-554.155Z" transform="translate(4094.875 4417.167)" fill="#ececec"/>
    <path id="패스_6184" data-name="패스 6184" d="M160.723-552.791c.031-.022.058-.078.1-.008l0,.07A.084.084,0,0,1,160.723-552.791Z" transform="translate(4093.462 4415.93)" fill="#a2a2a2"/>
    <path id="패스_6185" data-name="패스 6185" d="M147.117-555.127l-.025-.1.025-.02.032,0,.083.06a.13.13,0,0,0,.013.022s.01,0,.015.005l-.031-.025.007-.07a.287.287,0,0,0,.063,0l.08.056-.018.078-.035.059-.071.011Z" transform="translate(4106.216 4418.189)" fill="#a2a2a2"/>
    <path id="패스_6186" data-name="패스 6186" d="M150.712-553.32l.035-.059.121-.019.2.013-.011.076Z" transform="translate(4102.829 4416.459)" fill="#272727"/>
    <path id="패스_6187" data-name="패스 6187" d="M153.349-558.049l-.2-.013.007-.109c-.024-.127.043-.156.151-.141l.055-.071c.037,0,.07.054.109.007l.07.112c.012.024-.007.083.056.05l.021-.1.112.135.018.072c-.069.019-.15-.018-.208.047Z" transform="translate(4100.551 4421.123)" fill="#a2a2a2"/>
    <path id="패스_6188" data-name="패스 6188" d="M158.22-558.994l-.07-.112c.11-.136.11.007.147.058l-.021.1Z" transform="translate(4095.869 4421.853)" fill="#ececec"/>
    <path id="패스_6189" data-name="패스 6189" d="M154.646-559.383l-.055.071c0-.047-.142-.077-.018-.14Z" transform="translate(4099.264 4422.124)" fill="#ececec"/>
    <path id="패스_6190" data-name="패스 6190" d="M144.318-559.35a.092.092,0,0,1,0-.051l.239-.094.087.021.035.162-.058.04-.105-.087c-.019-.017-.05-.05-.054-.047-.049.037-.01.06.018.084l.071.107-.032,0-.025.02Z" transform="translate(4108.815 4422.164)" fill="#ececec"/>
    <path id="패스_6191" data-name="패스 6191" d="M151.388-555.089l-.007.109-.121.019.018-.078Z" transform="translate(4102.316 4418.041)" fill="#ececec"/>
    <path id="패스_6192" data-name="패스 6192" d="M149.161-556.555a.288.288,0,0,1-.063,0,.117.117,0,0,1-.016-.051l.058-.04Z" transform="translate(4104.354 4419.5)" fill="#ececec"/>
    <path id="패스_6193" data-name="패스 6193" d="M147.018-557.293a.117.117,0,0,0,.016.051l-.007.07,0,0-.083-.06-.071-.107.036-.037Z" transform="translate(4106.418 4420.185)" fill="#515151"/>
    <path id="패스_6194" data-name="패스 6194" d="M149.219-554.208l.031.025c-.005,0-.012,0-.015-.005a.13.13,0,0,1-.013-.022Z" transform="translate(4104.226 4417.22)" fill="#515151"/>
    <path id="패스_6195" data-name="패스 6195" d="M159.245-556.531l.056.05C159.238-556.448,159.257-556.507,159.245-556.531Z" transform="translate(4094.844 4419.39)" fill="#515151"/>
    <path id="패스_6196" data-name="패스 6196" d="M146.278-558.03c-.028-.024-.067-.047-.018-.084,0,0,.036.031.054.047Z" transform="translate(4107.016 4420.872)" fill="#515151"/>
  </g>
</svg>
