<svg xmlns="http://www.w3.org/2000/svg" width="55.788" height="16" viewBox="0 0 55.788 16">
  <g id="그룹_6926" data-name="그룹 6926" transform="translate(-479.336 -357.117)">
    <path id="패스_6316" data-name="패스 6316" d="M1416.28,544.3a83.972,83.972,0,0,1-9.066.142c-.174,0-.51.022-.6.177a16.62,16.62,0,0,1-1.283,2.026,21.711,21.711,0,0,0,4.713,1C1413.444,547.8,1417.283,544.226,1416.28,544.3Z" transform="translate(-885.49 -178.999)" fill="#eee"/>
    <path id="패스_6317" data-name="패스 6317" d="M1352.733,622.619a.16.16,0,0,1-.056-.183.138.138,0,0,1,.031-.049,17.38,17.38,0,0,0,1.334-1.357.358.358,0,0,1,.307-.114c1.285.406,2.5.751,3.781,1.22.266.1.13.288.061.323C1355.711,623.752,1353.786,623.283,1352.733,622.619Z" transform="translate(-835.129 -252.256)" fill="#eee"/>
    <path id="패스_6318" data-name="패스 6318" d="M1287.594,419.654a.116.116,0,0,0-.12-.074h-.019c-1.3.095-15.49,1.7-15.633,1.715a.777.777,0,0,0-.509.448,15.878,15.878,0,0,1-1.812,5.058,19.972,19.972,0,0,1-3.259,4.172,12.813,12.813,0,0,0,2.584-1.762,15.742,15.742,0,0,0,3.843-4.9.7.7,0,0,1,.764-.447h.906c1.033,0,1.946.017,2.868.037l.26.006c.746.016,1.453.031,2.09.031,2.956,0,4.736-.35,6.836-2.3C1287.058,421.023,1287.71,419.946,1287.594,419.654Z" transform="translate(-752.484 -59.73)" fill="#eee"/>
    <g id="그룹_6925" data-name="그룹 6925" transform="translate(479.336 359.849)">
      <path id="패스_6319" data-name="패스 6319" d="M574.871,544.3a83.971,83.971,0,0,0,9.066.142c.174,0,.51.022.6.177a16.628,16.628,0,0,0,1.283,2.026,21.711,21.711,0,0,1-4.713,1C577.707,547.8,573.868,544.226,574.871,544.3Z" transform="translate(-570.537 -538.848)" fill="#eee"/>
      <path id="패스_6320" data-name="패스 6320" d="M758.446,622.619a.16.16,0,0,0,.056-.183.136.136,0,0,0-.031-.049,17.39,17.39,0,0,1-1.334-1.357.358.358,0,0,0-.307-.114c-1.285.406-2.5.751-3.781,1.22-.266.1-.13.288-.062.323C755.468,623.752,757.393,623.283,758.446,622.619Z" transform="translate(-740.926 -612.105)" fill="#eee"/>
      <path id="패스_6321" data-name="패스 6321" d="M479.35,419.654a.116.116,0,0,1,.12-.074h.019c1.3.095,15.49,1.7,15.633,1.715a.777.777,0,0,1,.509.448,15.878,15.878,0,0,0,1.812,5.058,19.97,19.97,0,0,0,3.259,4.172,12.8,12.8,0,0,1-2.584-1.762,15.74,15.74,0,0,1-3.843-4.9.7.7,0,0,0-.764-.447H492.6c-1.033,0-1.946.017-2.868.037l-.26.006c-.746.016-1.452.031-2.09.031-2.956,0-4.736-.35-6.836-2.3C479.886,421.023,479.234,419.946,479.35,419.654Z" transform="translate(-479.336 -419.579)" fill="#eee"/>
    </g>
    <path id="패스_6322" data-name="패스 6322" d="M913.81,360.353a38.117,38.117,0,0,0-8.581-3.123,4.183,4.183,0,0,0-.976-.113,4.054,4.054,0,0,0-.955.109,37.956,37.956,0,0,0-8.476,3.127.469.469,0,0,0-.235.444,13.078,13.078,0,0,0,1.579,5.087,17.248,17.248,0,0,0,7.6,7.1,1.191,1.191,0,0,0,1.1,0,17.244,17.244,0,0,0,7.6-7.1,13.077,13.077,0,0,0,1.582-5.085A.467.467,0,0,0,913.81,360.353Zm-5.388,3.178h-1.459v-.474a.044.044,0,0,0-.022-.038l-2.575-1.489-.022-.013a.044.044,0,0,0-.044,0l-2.6,1.5a.044.044,0,0,0-.022.038v1.219a.044.044,0,0,0,.044.044h6.7v3.262l-3.114,1.8-.022.013a.044.044,0,0,0-.022.038v1.06l-5.037-2.91v-1.342h4.11v1.013h-1.6a.044.044,0,0,0-.022.082l1.59.917a.044.044,0,0,0,.044,0l2.6-1.5a.044.044,0,0,0,.022-.038v-1.219a.044.044,0,0,0-.044-.044h-6.7v-3.261l3.155-1.815a.044.044,0,0,0,.022-.038V359.3l.927.533,4.091,2.365Z" transform="translate(-397.085 0)" fill="#eee"/>
  </g>
</svg>
