<svg xmlns="http://www.w3.org/2000/svg" width="23" height="23" viewBox="0 0 23 23">
  <g id="그룹_6966" data-name="그룹 6966" transform="translate(15106.5 17445.5)">
    <rect id="사각형_6570" data-name="사각형 6570" width="22" height="22" transform="translate(-15106 -17445)" fill="#fff" stroke="#fff" stroke-width="1" opacity="0"/>
    <g id="그룹_6961" data-name="그룹 6961" transform="translate(755.5 -5079)">
      <g id="사각형_144" data-name="사각형 144" transform="translate(-15861 -12364)" fill="none" stroke="#fff" stroke-width="1.2">
        <rect width="21" height="18" rx="1" stroke="none"/>
        <rect x="0.6" y="0.6" width="19.8" height="16.8" rx="0.4" fill="none"/>
      </g>
      <path id="교차_2" data-name="교차 2" d="M.2,3.194a3,3,0,0,1,3-3v6A3,3,0,0,1,.2,3.194Z" transform="translate(-15857.054 -12351.815) rotate(180)" fill="none" stroke="#fff" stroke-width="1.2"/>
      <path id="교차_24" data-name="교차 24" d="M0,3A3,3,0,0,1,3,0V6A3,3,0,0,1,0,3Z" transform="translate(-15843.75 -12358)" fill="none" stroke="#fff" stroke-width="1.2"/>
      <circle id="타원_6" data-name="타원 6" cx="3.5" cy="3.5" r="3.5" transform="translate(-15854 -12358.511)" fill="none" stroke="#fff" stroke-width="1.2"/>
      <g id="사각형_145" data-name="사각형 145" transform="translate(-15851.25 -12363.804)" fill="none" stroke="#fff" stroke-width="1.2">
        <rect width="1.5" height="17.609" stroke="none"/>
        <rect x="0.6" y="0.6" width="0.3" height="16.409" fill="none"/>
      </g>
    </g>
  </g>
</svg>
