<svg xmlns="http://www.w3.org/2000/svg" width="14" height="11.679" viewBox="0 0 14 11.679">
  <g id="그룹_6863" data-name="그룹 6863" transform="translate(-271.5 -56.772)">
    <rect id="사각형_6557" data-name="사각형 6557" width="13" height="10.679" rx="2" transform="translate(272 57.272)" fill="none" stroke="#ddd" stroke-width="1"/>
    <path id="패스_6311" data-name="패스 6311" d="M682.333,389.32h4.69a1.108,1.108,0,0,0,.873-1.92l-1.679-1.462-3.224-2.808a1.036,1.036,0,0,0-1.319,0l-3.224,2.808-1.679,1.462a1.108,1.108,0,0,0,.873,1.92Z" transform="translate(-403.834 -321.369)" fill="none" stroke="#ddd" stroke-width="1"/>
    <path id="패스_6312" data-name="패스 6312" d="M682.334,378.5h4.69c1.122,0,1.676,1.149.873,1.809l-1.679,1.378-3.224,2.646a1.085,1.085,0,0,1-1.319,0l-3.224-2.646-1.679-1.378c-.8-.66-.25-1.809.873-1.809Z" transform="translate(-403.834 -321.227)" fill="#2c3340" stroke="#ddd" stroke-width="1"/>
  </g>
</svg>
